M48
;GenerationSoftware,Autodesk,EAGLE,9.6.0*%
;CreationDate,2020-04-29T18:40:13Z*%
FMAT,2
ICI,OFF
METRIC,TZ,000.000
T2C0.305
T1C1.016
%
G90
M71
T1
X21273Y22542
X16192Y20003
X16192Y22542
X18733Y20003
X18733Y22542
X21273Y20003
T2
X8414Y49371
X794Y40481
X16192Y36354
X952Y28892
X952Y31432
X5398Y24924
X5398Y22860
X11747Y26511
X16192Y35560
X12700Y32385
X4921Y20796
X12382Y26511
X20003Y46355
X21273Y40958
X19844Y35084
X19844Y34449
X17463Y49212
X23812Y31115
X4763Y23495
X952Y27146
X14605Y6350
X13970Y6350
X14605Y6985
X13970Y6985
X15240Y6985
X15240Y6350
X13970Y7620
X14605Y7620
X15240Y7620
X22225Y14129
X1905Y16192
X1905Y15557
X1905Y14922
X14287Y16986
X14287Y17621
X23336Y31432
X18256Y33179
X1270Y16192
X1270Y15557
X1270Y14922
X2540Y6350
X3175Y6350
X3810Y6350
X2540Y5715
X3175Y5715
X3810Y5715
X2540Y5080
X3175Y5080
X3810Y5080
X12382Y20638
X10478Y48260
X22860Y48260
X11906Y39529
X6826Y39846
X13652Y32385
X11747Y28257
X18733Y46355
X4921Y21907
X8414Y13811
X9049Y13811
X9049Y13176
X8414Y13176
X8255Y43498
X8731Y41275
X14287Y48260
X8255Y51276
X6191Y53499
X16034Y47307
X10795Y41116
X7461Y40481
X9525Y40481
X13335Y45561
X11430Y35084
X10160Y31432
X11906Y38259
X10160Y28892
X9843Y35084
X15875Y28892
X12541Y42863
X9366Y24924
X17463Y48577
X11112Y27305
X11747Y11906
X11747Y32385
X21273Y42704
X11906Y31274
X17463Y41275
X13811Y28257
X13017Y29051
X10160Y29845
X14922Y27146
X15875Y29845
X18733Y40958
X19050Y25241
X21431Y16510
X20003Y40958
X20161Y25559
X22860Y15399
X18733Y31909
X18733Y26670
X23654Y15875
X23336Y5239
X15399Y31591
X17463Y47942
X11747Y20638
X3175Y44926
X12541Y51276
X9366Y43656
X22225Y16034
M30