G04 EAGLE Gerber RS-274X export*
G75*
%MOMM*%
%FSLAX34Y34*%
%LPD*%
%INTop Copper*%
%IPPOS*%
%AMOC8*
5,1,8,0,0,1.08239X$1,22.5*%
G01*
%ADD10C,0.076200*%
%ADD11R,1.100000X1.000000*%
%ADD12R,1.000000X1.100000*%
%ADD13R,0.700000X1.000000*%
%ADD14R,1.270000X0.558800*%
%ADD15R,0.558800X1.270000*%
%ADD16R,2.400000X1.900000*%
%ADD17R,1.400000X1.000000*%
%ADD18R,1.200000X1.200000*%
%ADD19P,1.649562X8X22.500000*%
%ADD20R,0.600000X2.200000*%
%ADD21R,1.000000X1.400000*%
%ADD22R,2.500000X2.000000*%
%ADD23R,1.780000X2.160000*%
%ADD24R,1.200000X2.800000*%
%ADD25R,2.400000X2.800000*%
%ADD26R,2.800000X2.400000*%
%ADD27R,0.690000X0.990000*%
%ADD28R,1.000000X2.200000*%
%ADD29R,1.200000X0.850000*%
%ADD30R,0.350000X0.800000*%
%ADD31R,4.000000X4.000000*%
%ADD32R,2.000000X4.000000*%
%ADD33C,0.711200*%
%ADD34C,0.203200*%
%ADD35C,0.254000*%
%ADD36C,0.304800*%
%ADD37C,0.406400*%
%ADD38C,0.508000*%

G36*
X227423Y52960D02*
X227423Y52960D01*
X227425Y52960D01*
X227565Y52980D01*
X227703Y53000D01*
X227705Y53000D01*
X227706Y53000D01*
X227832Y53057D01*
X227963Y53116D01*
X227964Y53117D01*
X227965Y53118D01*
X228073Y53209D01*
X228180Y53300D01*
X228181Y53301D01*
X228182Y53302D01*
X228190Y53315D01*
X228337Y53536D01*
X228347Y53565D01*
X228360Y53586D01*
X229055Y55266D01*
X230484Y56695D01*
X232352Y57468D01*
X234373Y57468D01*
X236241Y56695D01*
X237026Y55909D01*
X237050Y55891D01*
X237069Y55869D01*
X237163Y55806D01*
X237253Y55738D01*
X237281Y55728D01*
X237305Y55711D01*
X237413Y55677D01*
X237519Y55637D01*
X237548Y55635D01*
X237576Y55626D01*
X237690Y55623D01*
X237802Y55613D01*
X237831Y55619D01*
X237860Y55618D01*
X237970Y55647D01*
X238081Y55669D01*
X238107Y55683D01*
X238135Y55690D01*
X238233Y55748D01*
X238333Y55800D01*
X238355Y55821D01*
X238380Y55835D01*
X238457Y55918D01*
X238539Y55996D01*
X238554Y56021D01*
X238574Y56043D01*
X238626Y56144D01*
X238683Y56241D01*
X238690Y56270D01*
X238704Y56296D01*
X238717Y56373D01*
X238753Y56517D01*
X238751Y56579D01*
X238759Y56627D01*
X238759Y72577D01*
X238747Y72664D01*
X238744Y72751D01*
X238727Y72804D01*
X238719Y72859D01*
X238684Y72938D01*
X238657Y73022D01*
X238629Y73061D01*
X238603Y73118D01*
X238507Y73231D01*
X238462Y73295D01*
X235004Y76753D01*
X234934Y76805D01*
X234870Y76865D01*
X234821Y76891D01*
X234777Y76924D01*
X234695Y76955D01*
X234617Y76995D01*
X234570Y77003D01*
X234511Y77025D01*
X234363Y77037D01*
X234286Y77050D01*
X225643Y77050D01*
X224750Y77943D01*
X224750Y89207D01*
X225643Y90100D01*
X237907Y90100D01*
X238800Y89207D01*
X238800Y80564D01*
X238812Y80477D01*
X238815Y80390D01*
X238832Y80337D01*
X238840Y80282D01*
X238875Y80203D01*
X238902Y80119D01*
X238930Y80080D01*
X238956Y80023D01*
X239052Y79910D01*
X239097Y79846D01*
X242646Y76297D01*
X242670Y76279D01*
X242689Y76257D01*
X242783Y76194D01*
X242873Y76126D01*
X242901Y76116D01*
X242925Y76099D01*
X243033Y76065D01*
X243139Y76025D01*
X243168Y76022D01*
X243196Y76014D01*
X243310Y76011D01*
X243422Y76001D01*
X243451Y76007D01*
X243480Y76006D01*
X243590Y76035D01*
X243701Y76057D01*
X243727Y76071D01*
X243755Y76078D01*
X243853Y76136D01*
X243953Y76188D01*
X243975Y76208D01*
X244000Y76223D01*
X244077Y76306D01*
X244159Y76384D01*
X244174Y76409D01*
X244194Y76431D01*
X244246Y76532D01*
X244303Y76629D01*
X244310Y76658D01*
X244324Y76684D01*
X244337Y76761D01*
X244373Y76905D01*
X244371Y76967D01*
X244379Y77015D01*
X244379Y139348D01*
X244375Y139377D01*
X244378Y139406D01*
X244355Y139517D01*
X244339Y139629D01*
X244327Y139656D01*
X244322Y139685D01*
X244270Y139785D01*
X244223Y139889D01*
X244204Y139911D01*
X244191Y139937D01*
X244113Y140019D01*
X244040Y140106D01*
X244015Y140122D01*
X243995Y140143D01*
X243897Y140200D01*
X243803Y140263D01*
X243775Y140272D01*
X243750Y140287D01*
X243640Y140315D01*
X243532Y140349D01*
X243502Y140350D01*
X243474Y140357D01*
X243361Y140353D01*
X243248Y140356D01*
X243219Y140349D01*
X243190Y140348D01*
X243082Y140313D01*
X242973Y140284D01*
X242947Y140269D01*
X242919Y140260D01*
X242856Y140215D01*
X242728Y140139D01*
X242685Y140093D01*
X242646Y140065D01*
X239674Y137093D01*
X239639Y137047D01*
X239596Y137006D01*
X239554Y136933D01*
X239503Y136866D01*
X239482Y136811D01*
X239453Y136761D01*
X239432Y136679D01*
X239402Y136600D01*
X239397Y136542D01*
X239382Y136485D01*
X239385Y136401D01*
X239378Y136317D01*
X239390Y136260D01*
X239392Y136201D01*
X239417Y136121D01*
X239434Y136038D01*
X239461Y135986D01*
X239479Y135931D01*
X239519Y135874D01*
X239565Y135786D01*
X239634Y135714D01*
X239674Y135657D01*
X239962Y135369D01*
X239962Y126106D01*
X239069Y125213D01*
X234306Y125213D01*
X234155Y125363D01*
X234109Y125398D01*
X234068Y125441D01*
X233996Y125484D01*
X233928Y125534D01*
X233874Y125555D01*
X233823Y125585D01*
X233742Y125605D01*
X233663Y125635D01*
X233604Y125640D01*
X233548Y125655D01*
X233464Y125652D01*
X233379Y125659D01*
X233322Y125647D01*
X233263Y125646D01*
X233183Y125620D01*
X233101Y125603D01*
X233049Y125576D01*
X232993Y125558D01*
X232937Y125518D01*
X232848Y125472D01*
X232776Y125403D01*
X232720Y125363D01*
X232569Y125213D01*
X227751Y125213D01*
X227694Y125205D01*
X227635Y125206D01*
X227554Y125185D01*
X227470Y125173D01*
X227417Y125149D01*
X227360Y125134D01*
X227288Y125091D01*
X227211Y125057D01*
X227166Y125019D01*
X227116Y124989D01*
X227058Y124927D01*
X226994Y124873D01*
X226961Y124824D01*
X226921Y124782D01*
X226883Y124707D01*
X226836Y124636D01*
X226818Y124581D01*
X226792Y124529D01*
X226780Y124461D01*
X226750Y124365D01*
X226748Y124266D01*
X226736Y124198D01*
X226736Y119016D01*
X226748Y118929D01*
X226751Y118842D01*
X226768Y118789D01*
X226776Y118734D01*
X226812Y118654D01*
X226839Y118571D01*
X226867Y118532D01*
X226892Y118475D01*
X226962Y118392D01*
X226962Y109401D01*
X226974Y109315D01*
X226977Y109227D01*
X226994Y109175D01*
X227002Y109120D01*
X227038Y109040D01*
X227065Y108957D01*
X227093Y108918D01*
X227118Y108861D01*
X227214Y108747D01*
X227260Y108684D01*
X228546Y107397D01*
X228616Y107345D01*
X228680Y107285D01*
X228729Y107259D01*
X228773Y107226D01*
X228855Y107195D01*
X228933Y107155D01*
X228980Y107147D01*
X229039Y107125D01*
X229187Y107113D01*
X229264Y107100D01*
X237907Y107100D01*
X238800Y106207D01*
X238800Y94943D01*
X237907Y94050D01*
X225643Y94050D01*
X224750Y94943D01*
X224750Y103586D01*
X224738Y103673D01*
X224735Y103760D01*
X224718Y103813D01*
X224710Y103868D01*
X224675Y103947D01*
X224648Y104031D01*
X224620Y104070D01*
X224594Y104127D01*
X224498Y104240D01*
X224453Y104304D01*
X221147Y107610D01*
X221147Y107951D01*
X221135Y108038D01*
X221132Y108125D01*
X221115Y108178D01*
X221107Y108233D01*
X221071Y108313D01*
X221044Y108396D01*
X221016Y108435D01*
X220991Y108492D01*
X220895Y108606D01*
X220849Y108669D01*
X220413Y109106D01*
X220413Y118388D01*
X220454Y118431D01*
X220479Y118481D01*
X220512Y118525D01*
X220543Y118607D01*
X220583Y118685D01*
X220591Y118732D01*
X220614Y118791D01*
X220626Y118938D01*
X220639Y119016D01*
X220639Y125459D01*
X220627Y125546D01*
X220624Y125633D01*
X220607Y125686D01*
X220599Y125741D01*
X220563Y125821D01*
X220536Y125904D01*
X220508Y125943D01*
X220483Y126000D01*
X220413Y126083D01*
X220413Y135527D01*
X220431Y135569D01*
X220435Y135596D01*
X220445Y135622D01*
X220454Y135736D01*
X220470Y135850D01*
X220466Y135878D01*
X220469Y135905D01*
X220446Y136018D01*
X220430Y136132D01*
X220418Y136157D01*
X220413Y136184D01*
X220360Y136286D01*
X220312Y136391D01*
X220294Y136412D01*
X220282Y136436D01*
X220203Y136519D01*
X220128Y136607D01*
X220107Y136620D01*
X220086Y136642D01*
X219855Y136778D01*
X219843Y136785D01*
X219841Y136786D01*
X219372Y136980D01*
X217943Y138409D01*
X217169Y140277D01*
X217169Y142298D01*
X217943Y144166D01*
X219372Y145595D01*
X221239Y146368D01*
X223261Y146368D01*
X225128Y145595D01*
X226597Y144126D01*
X226667Y144073D01*
X226731Y144013D01*
X226780Y143988D01*
X226824Y143955D01*
X226906Y143924D01*
X226984Y143884D01*
X227031Y143876D01*
X227090Y143853D01*
X227238Y143841D01*
X227315Y143828D01*
X228065Y143828D01*
X229851Y142043D01*
X232926Y138967D01*
X232973Y138932D01*
X233013Y138890D01*
X233086Y138847D01*
X233153Y138796D01*
X233208Y138776D01*
X233258Y138746D01*
X233340Y138725D01*
X233419Y138695D01*
X233477Y138690D01*
X233534Y138676D01*
X233618Y138679D01*
X233702Y138672D01*
X233759Y138683D01*
X233818Y138685D01*
X233898Y138711D01*
X233981Y138727D01*
X234033Y138754D01*
X234088Y138772D01*
X234144Y138813D01*
X234233Y138858D01*
X234305Y138927D01*
X234362Y138967D01*
X240049Y144655D01*
X240059Y144668D01*
X240064Y144672D01*
X240078Y144693D01*
X240102Y144725D01*
X240162Y144789D01*
X240187Y144838D01*
X240220Y144882D01*
X240251Y144964D01*
X240291Y145042D01*
X240299Y145089D01*
X240322Y145148D01*
X240334Y145296D01*
X240347Y145373D01*
X240347Y153309D01*
X240331Y153423D01*
X240321Y153537D01*
X240311Y153563D01*
X240307Y153591D01*
X240260Y153695D01*
X240219Y153803D01*
X240202Y153825D01*
X240191Y153850D01*
X240117Y153938D01*
X240047Y154029D01*
X240025Y154046D01*
X240007Y154067D01*
X239912Y154131D01*
X239819Y154199D01*
X239794Y154209D01*
X239770Y154225D01*
X239661Y154259D01*
X239553Y154300D01*
X239526Y154302D01*
X239499Y154310D01*
X239385Y154313D01*
X239270Y154322D01*
X239246Y154317D01*
X239215Y154318D01*
X238958Y154251D01*
X238943Y154247D01*
X237548Y153669D01*
X235527Y153669D01*
X235085Y153853D01*
X234973Y153881D01*
X234864Y153916D01*
X234836Y153917D01*
X234809Y153923D01*
X234695Y153920D01*
X234580Y153923D01*
X234553Y153916D01*
X234525Y153915D01*
X234416Y153880D01*
X234305Y153851D01*
X234281Y153837D01*
X234254Y153829D01*
X234159Y153765D01*
X234060Y153706D01*
X234041Y153686D01*
X234018Y153670D01*
X233944Y153582D01*
X233866Y153499D01*
X233853Y153474D01*
X233835Y153453D01*
X233789Y153348D01*
X233736Y153246D01*
X233732Y153221D01*
X233720Y153193D01*
X233694Y153010D01*
X232907Y151109D01*
X231478Y149680D01*
X229611Y148907D01*
X227589Y148907D01*
X225722Y149680D01*
X224293Y151109D01*
X223519Y152977D01*
X223519Y154242D01*
X223511Y154299D01*
X223513Y154358D01*
X223491Y154439D01*
X223479Y154523D01*
X223456Y154576D01*
X223441Y154633D01*
X223398Y154705D01*
X223363Y154782D01*
X223325Y154827D01*
X223296Y154877D01*
X223234Y154935D01*
X223180Y154999D01*
X223131Y155032D01*
X223088Y155072D01*
X223013Y155110D01*
X222943Y155157D01*
X222887Y155175D01*
X222835Y155201D01*
X222767Y155213D01*
X222672Y155243D01*
X222572Y155245D01*
X222504Y155257D01*
X221239Y155257D01*
X219372Y156030D01*
X217943Y157459D01*
X217156Y159359D01*
X217153Y159378D01*
X217143Y159493D01*
X217133Y159519D01*
X217129Y159546D01*
X217082Y159651D01*
X217041Y159758D01*
X217025Y159780D01*
X217013Y159805D01*
X216939Y159893D01*
X216870Y159985D01*
X216847Y160001D01*
X216830Y160022D01*
X216734Y160086D01*
X216642Y160155D01*
X216616Y160165D01*
X216593Y160180D01*
X216483Y160215D01*
X216376Y160255D01*
X216348Y160257D01*
X216322Y160266D01*
X216207Y160269D01*
X216093Y160278D01*
X216068Y160272D01*
X216038Y160273D01*
X215781Y160206D01*
X215765Y160203D01*
X215323Y160019D01*
X213302Y160019D01*
X211434Y160793D01*
X210005Y162222D01*
X209232Y164089D01*
X209232Y166111D01*
X210005Y167978D01*
X210305Y168278D01*
X210340Y168325D01*
X210383Y168365D01*
X210425Y168438D01*
X210476Y168505D01*
X210497Y168560D01*
X210526Y168610D01*
X210547Y168692D01*
X210577Y168771D01*
X210582Y168829D01*
X210596Y168886D01*
X210594Y168970D01*
X210601Y169054D01*
X210589Y169111D01*
X210587Y169170D01*
X210561Y169250D01*
X210545Y169333D01*
X210518Y169385D01*
X210500Y169440D01*
X210460Y169497D01*
X210414Y169585D01*
X210345Y169657D01*
X210305Y169714D01*
X209938Y170081D01*
X209938Y171450D01*
X209930Y171508D01*
X209931Y171566D01*
X209910Y171648D01*
X209898Y171732D01*
X209874Y171785D01*
X209859Y171841D01*
X209816Y171914D01*
X209782Y171991D01*
X209744Y172036D01*
X209714Y172086D01*
X209652Y172144D01*
X209598Y172208D01*
X209549Y172240D01*
X209507Y172280D01*
X209432Y172319D01*
X209361Y172366D01*
X209306Y172383D01*
X209254Y172410D01*
X209186Y172421D01*
X209090Y172451D01*
X208991Y172454D01*
X208923Y172465D01*
X207002Y172465D01*
X206945Y172457D01*
X206886Y172459D01*
X206805Y172437D01*
X206721Y172425D01*
X206668Y172402D01*
X206611Y172387D01*
X206539Y172344D01*
X206462Y172309D01*
X206417Y172271D01*
X206367Y172242D01*
X206309Y172180D01*
X206245Y172126D01*
X206212Y172077D01*
X206172Y172034D01*
X206134Y171959D01*
X206087Y171889D01*
X206069Y171833D01*
X206043Y171781D01*
X206031Y171713D01*
X206001Y171618D01*
X205999Y171518D01*
X205987Y171450D01*
X205987Y170081D01*
X205094Y169188D01*
X193831Y169188D01*
X192938Y170081D01*
X192938Y182344D01*
X193645Y183051D01*
X193662Y183075D01*
X193685Y183094D01*
X193748Y183188D01*
X193816Y183278D01*
X193826Y183306D01*
X193842Y183330D01*
X193877Y183438D01*
X193917Y183544D01*
X193919Y183573D01*
X193928Y183601D01*
X193931Y183715D01*
X193941Y183827D01*
X193935Y183856D01*
X193936Y183885D01*
X193907Y183995D01*
X193885Y184106D01*
X193871Y184132D01*
X193864Y184160D01*
X193806Y184258D01*
X193754Y184358D01*
X193733Y184380D01*
X193718Y184405D01*
X193636Y184482D01*
X193558Y184564D01*
X193533Y184579D01*
X193511Y184599D01*
X193410Y184651D01*
X193313Y184708D01*
X193284Y184715D01*
X193258Y184729D01*
X193181Y184742D01*
X193037Y184778D01*
X192975Y184776D01*
X192927Y184784D01*
X179360Y184784D01*
X172084Y192060D01*
X172084Y194801D01*
X172080Y194830D01*
X172083Y194859D01*
X172060Y194970D01*
X172044Y195082D01*
X172032Y195109D01*
X172027Y195138D01*
X171975Y195238D01*
X171928Y195342D01*
X171909Y195364D01*
X171896Y195390D01*
X171818Y195472D01*
X171745Y195559D01*
X171720Y195575D01*
X171700Y195596D01*
X171602Y195653D01*
X171508Y195716D01*
X171480Y195725D01*
X171455Y195740D01*
X171345Y195768D01*
X171237Y195802D01*
X171207Y195803D01*
X171179Y195810D01*
X171066Y195806D01*
X170953Y195809D01*
X170924Y195802D01*
X170895Y195801D01*
X170787Y195766D01*
X170678Y195737D01*
X170652Y195722D01*
X170624Y195713D01*
X170561Y195668D01*
X170433Y195592D01*
X170390Y195547D01*
X170351Y195519D01*
X165713Y190880D01*
X158137Y190880D01*
X152780Y196237D01*
X152780Y203813D01*
X158137Y209170D01*
X165713Y209170D01*
X170351Y204531D01*
X170375Y204514D01*
X170394Y204491D01*
X170488Y204429D01*
X170578Y204361D01*
X170606Y204350D01*
X170630Y204334D01*
X170738Y204300D01*
X170844Y204259D01*
X170873Y204257D01*
X170901Y204248D01*
X171015Y204245D01*
X171127Y204236D01*
X171156Y204242D01*
X171185Y204241D01*
X171295Y204269D01*
X171406Y204292D01*
X171432Y204305D01*
X171460Y204313D01*
X171558Y204370D01*
X171658Y204423D01*
X171680Y204443D01*
X171705Y204458D01*
X171782Y204540D01*
X171864Y204618D01*
X171879Y204644D01*
X171899Y204665D01*
X171951Y204766D01*
X172008Y204864D01*
X172015Y204892D01*
X172029Y204918D01*
X172042Y204996D01*
X172078Y205139D01*
X172076Y205202D01*
X172084Y205249D01*
X172084Y234950D01*
X172076Y235008D01*
X172078Y235066D01*
X172056Y235148D01*
X172044Y235232D01*
X172021Y235285D01*
X172006Y235341D01*
X171963Y235414D01*
X171928Y235491D01*
X171890Y235536D01*
X171861Y235586D01*
X171799Y235644D01*
X171745Y235708D01*
X171696Y235740D01*
X171653Y235780D01*
X171578Y235819D01*
X171508Y235866D01*
X171452Y235883D01*
X171400Y235910D01*
X171332Y235921D01*
X171237Y235951D01*
X171137Y235954D01*
X171069Y235965D01*
X145652Y235965D01*
X145595Y235957D01*
X145536Y235959D01*
X145455Y235937D01*
X145371Y235925D01*
X145318Y235902D01*
X145261Y235887D01*
X145189Y235844D01*
X145112Y235809D01*
X145067Y235771D01*
X145017Y235742D01*
X144959Y235680D01*
X144895Y235626D01*
X144862Y235577D01*
X144822Y235534D01*
X144784Y235459D01*
X144737Y235389D01*
X144719Y235333D01*
X144693Y235281D01*
X144681Y235213D01*
X144651Y235118D01*
X144649Y235018D01*
X144637Y234950D01*
X144637Y227793D01*
X143745Y226901D01*
X143692Y226831D01*
X143632Y226767D01*
X143607Y226718D01*
X143574Y226674D01*
X143543Y226592D01*
X143503Y226514D01*
X143495Y226466D01*
X143473Y226408D01*
X143460Y226260D01*
X143447Y226183D01*
X143447Y224667D01*
X143460Y224580D01*
X143462Y224493D01*
X143479Y224440D01*
X143487Y224386D01*
X143523Y224306D01*
X143550Y224223D01*
X143578Y224183D01*
X143603Y224126D01*
X143699Y224013D01*
X143745Y223949D01*
X144637Y223057D01*
X144637Y210793D01*
X143744Y209900D01*
X132481Y209900D01*
X132113Y210268D01*
X132043Y210320D01*
X131980Y210380D01*
X131930Y210406D01*
X131886Y210439D01*
X131804Y210470D01*
X131726Y210510D01*
X131679Y210518D01*
X131620Y210540D01*
X131473Y210552D01*
X131395Y210565D01*
X129108Y210565D01*
X128994Y210549D01*
X128880Y210539D01*
X128854Y210529D01*
X128827Y210525D01*
X128722Y210478D01*
X128615Y210437D01*
X128593Y210421D01*
X128567Y210409D01*
X128480Y210335D01*
X128388Y210266D01*
X128371Y210243D01*
X128350Y210226D01*
X128287Y210130D01*
X128218Y210038D01*
X128208Y210012D01*
X128193Y209989D01*
X128158Y209879D01*
X128117Y209772D01*
X128115Y209744D01*
X128107Y209718D01*
X128104Y209603D01*
X128095Y209489D01*
X128100Y209464D01*
X128100Y209434D01*
X128167Y209177D01*
X128170Y209161D01*
X128906Y207386D01*
X128906Y205364D01*
X128132Y203497D01*
X126703Y202068D01*
X124836Y201294D01*
X122814Y201294D01*
X121039Y202030D01*
X120954Y202052D01*
X120872Y202083D01*
X120817Y202087D01*
X120763Y202101D01*
X120676Y202098D01*
X120589Y202105D01*
X120541Y202094D01*
X120479Y202093D01*
X120338Y202047D01*
X120261Y202030D01*
X118486Y201294D01*
X116464Y201294D01*
X114597Y202068D01*
X113168Y203497D01*
X112394Y205364D01*
X112394Y207386D01*
X112854Y208496D01*
X112883Y208608D01*
X112918Y208717D01*
X112918Y208745D01*
X112925Y208772D01*
X112922Y208886D01*
X112925Y209001D01*
X112918Y209028D01*
X112917Y209056D01*
X112882Y209165D01*
X112853Y209276D01*
X112839Y209300D01*
X112831Y209327D01*
X112767Y209422D01*
X112708Y209521D01*
X112688Y209540D01*
X112672Y209563D01*
X112585Y209637D01*
X112501Y209715D01*
X112476Y209728D01*
X112455Y209746D01*
X112350Y209792D01*
X112248Y209845D01*
X112223Y209849D01*
X112195Y209861D01*
X111931Y209898D01*
X111916Y209900D01*
X111843Y209900D01*
X111476Y210268D01*
X111406Y210320D01*
X111342Y210380D01*
X111293Y210406D01*
X111249Y210439D01*
X111167Y210470D01*
X111089Y210510D01*
X111041Y210518D01*
X110983Y210540D01*
X110835Y210552D01*
X110758Y210565D01*
X86977Y210565D01*
X86920Y210557D01*
X86861Y210559D01*
X86780Y210537D01*
X86696Y210525D01*
X86643Y210502D01*
X86586Y210487D01*
X86514Y210444D01*
X86437Y210409D01*
X86392Y210371D01*
X86342Y210342D01*
X86284Y210280D01*
X86220Y210226D01*
X86187Y210177D01*
X86147Y210134D01*
X86109Y210059D01*
X86062Y209989D01*
X86044Y209933D01*
X86018Y209881D01*
X86006Y209813D01*
X85976Y209718D01*
X85974Y209618D01*
X85962Y209550D01*
X85962Y205393D01*
X85069Y204500D01*
X79926Y204500D01*
X79840Y204488D01*
X79752Y204485D01*
X79700Y204468D01*
X79645Y204460D01*
X79565Y204425D01*
X79482Y204398D01*
X79443Y204370D01*
X79386Y204344D01*
X79272Y204248D01*
X79209Y204203D01*
X72307Y197301D01*
X72255Y197232D01*
X72195Y197168D01*
X72169Y197118D01*
X72136Y197074D01*
X72105Y196993D01*
X72065Y196915D01*
X72057Y196867D01*
X72035Y196809D01*
X72030Y196754D01*
X72024Y196733D01*
X72022Y196655D01*
X72010Y196584D01*
X72010Y196565D01*
X72013Y196543D01*
X72011Y196525D01*
X72018Y196494D01*
X72016Y196449D01*
X72038Y196367D01*
X72050Y196283D01*
X72074Y196230D01*
X72088Y196174D01*
X72131Y196101D01*
X72166Y196024D01*
X72204Y195979D01*
X72234Y195929D01*
X72295Y195871D01*
X72350Y195807D01*
X72398Y195775D01*
X72441Y195735D01*
X72516Y195696D01*
X72586Y195649D01*
X72642Y195632D01*
X72694Y195605D01*
X72762Y195594D01*
X72857Y195564D01*
X72957Y195561D01*
X73025Y195550D01*
X75569Y195550D01*
X76462Y194657D01*
X76462Y183393D01*
X75569Y182500D01*
X73025Y182500D01*
X72967Y182492D01*
X72909Y182494D01*
X72827Y182472D01*
X72744Y182460D01*
X72690Y182437D01*
X72634Y182422D01*
X72561Y182379D01*
X72484Y182344D01*
X72439Y182306D01*
X72389Y182277D01*
X72331Y182215D01*
X72267Y182161D01*
X72235Y182112D01*
X72195Y182069D01*
X72156Y181994D01*
X72110Y181924D01*
X72092Y181868D01*
X72065Y181816D01*
X72054Y181748D01*
X72024Y181653D01*
X72021Y181553D01*
X72010Y181485D01*
X72010Y164640D01*
X72018Y164582D01*
X72016Y164524D01*
X72038Y164442D01*
X72050Y164358D01*
X72074Y164305D01*
X72088Y164249D01*
X72131Y164176D01*
X72166Y164099D01*
X72204Y164054D01*
X72234Y164004D01*
X72295Y163946D01*
X72350Y163882D01*
X72398Y163850D01*
X72441Y163810D01*
X72516Y163771D01*
X72586Y163724D01*
X72642Y163707D01*
X72694Y163680D01*
X72762Y163669D01*
X72857Y163639D01*
X72957Y163636D01*
X73025Y163625D01*
X83419Y163625D01*
X84312Y162732D01*
X84312Y161172D01*
X84320Y161114D01*
X84319Y161056D01*
X84340Y160974D01*
X84352Y160890D01*
X84376Y160837D01*
X84391Y160781D01*
X84434Y160708D01*
X84468Y160631D01*
X84506Y160586D01*
X84536Y160536D01*
X84598Y160478D01*
X84652Y160414D01*
X84701Y160382D01*
X84743Y160342D01*
X84818Y160303D01*
X84889Y160256D01*
X84944Y160239D01*
X84996Y160212D01*
X85064Y160201D01*
X85160Y160171D01*
X85259Y160168D01*
X85327Y160157D01*
X90385Y160157D01*
X90443Y160165D01*
X90501Y160163D01*
X90583Y160185D01*
X90667Y160197D01*
X90720Y160220D01*
X90776Y160235D01*
X90849Y160278D01*
X90926Y160313D01*
X90971Y160351D01*
X91021Y160380D01*
X91079Y160442D01*
X91143Y160496D01*
X91175Y160545D01*
X91215Y160588D01*
X91254Y160663D01*
X91301Y160733D01*
X91318Y160789D01*
X91345Y160841D01*
X91356Y160909D01*
X91386Y161004D01*
X91389Y161104D01*
X91400Y161172D01*
X91400Y162232D01*
X92293Y163125D01*
X104557Y163125D01*
X105450Y162232D01*
X105450Y161172D01*
X105458Y161114D01*
X105456Y161056D01*
X105478Y160974D01*
X105490Y160890D01*
X105513Y160837D01*
X105528Y160781D01*
X105571Y160708D01*
X105606Y160631D01*
X105644Y160586D01*
X105673Y160536D01*
X105735Y160478D01*
X105789Y160414D01*
X105838Y160382D01*
X105881Y160342D01*
X105956Y160303D01*
X106026Y160256D01*
X106082Y160239D01*
X106134Y160212D01*
X106202Y160201D01*
X106297Y160171D01*
X106397Y160168D01*
X106465Y160157D01*
X111510Y160157D01*
X111568Y160165D01*
X111626Y160163D01*
X111708Y160185D01*
X111792Y160197D01*
X111845Y160220D01*
X111901Y160235D01*
X111974Y160278D01*
X112051Y160313D01*
X112096Y160351D01*
X112146Y160380D01*
X112204Y160442D01*
X112268Y160496D01*
X112300Y160545D01*
X112340Y160588D01*
X112379Y160663D01*
X112426Y160733D01*
X112443Y160789D01*
X112470Y160841D01*
X112481Y160909D01*
X112511Y161004D01*
X112514Y161104D01*
X112525Y161172D01*
X112525Y163044D01*
X113646Y164165D01*
X113698Y164235D01*
X113758Y164298D01*
X113784Y164348D01*
X113817Y164392D01*
X113848Y164474D01*
X113888Y164552D01*
X113896Y164599D01*
X113918Y164658D01*
X113930Y164805D01*
X113943Y164883D01*
X113943Y164998D01*
X113935Y165055D01*
X113937Y165114D01*
X113915Y165195D01*
X113903Y165279D01*
X113880Y165332D01*
X113865Y165389D01*
X113822Y165461D01*
X113787Y165538D01*
X113749Y165583D01*
X113720Y165633D01*
X113658Y165691D01*
X113604Y165755D01*
X113555Y165788D01*
X113512Y165828D01*
X113437Y165866D01*
X113367Y165913D01*
X113311Y165931D01*
X113259Y165957D01*
X113191Y165969D01*
X113096Y165999D01*
X112996Y166001D01*
X112928Y166013D01*
X109693Y166013D01*
X108800Y166906D01*
X108800Y179169D01*
X109693Y180062D01*
X120957Y180062D01*
X121850Y179169D01*
X121850Y170043D01*
X121854Y170014D01*
X121851Y169985D01*
X121874Y169874D01*
X121890Y169762D01*
X121902Y169735D01*
X121907Y169706D01*
X121960Y169606D01*
X122006Y169502D01*
X122025Y169480D01*
X122038Y169454D01*
X122116Y169372D01*
X122189Y169285D01*
X122214Y169269D01*
X122234Y169248D01*
X122332Y169191D01*
X122426Y169128D01*
X122454Y169119D01*
X122479Y169104D01*
X122589Y169076D01*
X122697Y169042D01*
X122727Y169041D01*
X122755Y169034D01*
X122868Y169038D01*
X122981Y169035D01*
X123010Y169042D01*
X123039Y169043D01*
X123147Y169078D01*
X123256Y169106D01*
X123282Y169121D01*
X123310Y169130D01*
X123373Y169176D01*
X123501Y169252D01*
X123544Y169297D01*
X123583Y169325D01*
X125503Y171245D01*
X125555Y171315D01*
X125615Y171379D01*
X125641Y171428D01*
X125674Y171473D01*
X125705Y171554D01*
X125745Y171632D01*
X125753Y171680D01*
X125775Y171738D01*
X125787Y171886D01*
X125800Y171963D01*
X125800Y179169D01*
X126693Y180062D01*
X137957Y180062D01*
X138030Y179989D01*
X138077Y179954D01*
X138117Y179911D01*
X138190Y179868D01*
X138257Y179818D01*
X138312Y179797D01*
X138362Y179767D01*
X138444Y179747D01*
X138523Y179717D01*
X138581Y179712D01*
X138638Y179697D01*
X138722Y179700D01*
X138806Y179693D01*
X138864Y179704D01*
X138922Y179706D01*
X139002Y179732D01*
X139085Y179749D01*
X139137Y179776D01*
X139193Y179794D01*
X139249Y179834D01*
X139337Y179880D01*
X139410Y179949D01*
X139466Y179989D01*
X139997Y180520D01*
X141864Y181293D01*
X143886Y181293D01*
X145753Y180520D01*
X147182Y179091D01*
X147956Y177223D01*
X147956Y175202D01*
X147220Y173426D01*
X147198Y173341D01*
X147167Y173259D01*
X147163Y173204D01*
X147149Y173151D01*
X147152Y173063D01*
X147145Y172976D01*
X147156Y172929D01*
X147157Y172867D01*
X147203Y172725D01*
X147220Y172649D01*
X147956Y170873D01*
X147956Y168852D01*
X147182Y166984D01*
X146681Y166483D01*
X146663Y166459D01*
X146641Y166440D01*
X146578Y166346D01*
X146510Y166256D01*
X146499Y166228D01*
X146483Y166204D01*
X146449Y166096D01*
X146408Y165990D01*
X146406Y165961D01*
X146397Y165933D01*
X146394Y165819D01*
X146385Y165707D01*
X146391Y165678D01*
X146390Y165649D01*
X146419Y165539D01*
X146441Y165428D01*
X146454Y165402D01*
X146462Y165374D01*
X146519Y165276D01*
X146572Y165176D01*
X146592Y165154D01*
X146607Y165129D01*
X146690Y165052D01*
X146768Y164970D01*
X146793Y164955D01*
X146814Y164935D01*
X146915Y164883D01*
X147013Y164826D01*
X147041Y164819D01*
X147067Y164805D01*
X147145Y164792D01*
X147288Y164756D01*
X147351Y164758D01*
X147398Y164750D01*
X158032Y164750D01*
X158925Y163857D01*
X158925Y151593D01*
X158862Y151530D01*
X158844Y151507D01*
X158822Y151488D01*
X158759Y151394D01*
X158691Y151303D01*
X158680Y151276D01*
X158664Y151251D01*
X158630Y151144D01*
X158590Y151038D01*
X158587Y151008D01*
X158578Y150980D01*
X158575Y150867D01*
X158566Y150754D01*
X158572Y150725D01*
X158571Y150696D01*
X158600Y150587D01*
X158622Y150476D01*
X158635Y150449D01*
X158643Y150421D01*
X158701Y150324D01*
X158753Y150223D01*
X158773Y150202D01*
X158788Y150177D01*
X158871Y150099D01*
X158949Y150017D01*
X158974Y150002D01*
X158995Y149982D01*
X159096Y149931D01*
X159194Y149873D01*
X159222Y149866D01*
X159249Y149853D01*
X159326Y149840D01*
X159469Y149803D01*
X159532Y149805D01*
X159580Y149797D01*
X175197Y149797D01*
X175197Y141288D01*
X175205Y141230D01*
X175204Y141171D01*
X175225Y141090D01*
X175237Y141006D01*
X175261Y140953D01*
X175276Y140896D01*
X175319Y140824D01*
X175353Y140747D01*
X175391Y140702D01*
X175421Y140652D01*
X175483Y140594D01*
X175537Y140530D01*
X175586Y140497D01*
X175628Y140457D01*
X175703Y140419D01*
X175774Y140372D01*
X175829Y140354D01*
X175881Y140328D01*
X175949Y140316D01*
X176045Y140286D01*
X176144Y140284D01*
X176213Y140272D01*
X203772Y140272D01*
X203772Y86740D01*
X196850Y86740D01*
X196792Y86732D01*
X196734Y86734D01*
X196652Y86712D01*
X196569Y86700D01*
X196515Y86677D01*
X196459Y86662D01*
X196386Y86619D01*
X196309Y86584D01*
X196264Y86546D01*
X196214Y86517D01*
X196156Y86455D01*
X196092Y86401D01*
X196060Y86352D01*
X196020Y86309D01*
X195981Y86234D01*
X195935Y86164D01*
X195917Y86108D01*
X195890Y86056D01*
X195879Y85988D01*
X195849Y85893D01*
X195846Y85793D01*
X195835Y85725D01*
X195835Y53975D01*
X195843Y53917D01*
X195841Y53859D01*
X195863Y53777D01*
X195875Y53694D01*
X195899Y53640D01*
X195913Y53584D01*
X195956Y53511D01*
X195991Y53434D01*
X196029Y53389D01*
X196059Y53339D01*
X196120Y53281D01*
X196175Y53217D01*
X196223Y53185D01*
X196266Y53145D01*
X196341Y53106D01*
X196411Y53060D01*
X196467Y53042D01*
X196519Y53015D01*
X196587Y53004D01*
X196682Y52974D01*
X196782Y52971D01*
X196850Y52960D01*
X227422Y52960D01*
X227423Y52960D01*
G37*
G36*
X190558Y524455D02*
X190558Y524455D01*
X190616Y524454D01*
X190698Y524475D01*
X190782Y524487D01*
X190835Y524511D01*
X190891Y524526D01*
X190964Y524569D01*
X191041Y524603D01*
X191086Y524641D01*
X191136Y524671D01*
X191194Y524733D01*
X191258Y524787D01*
X191290Y524836D01*
X191330Y524878D01*
X191369Y524953D01*
X191416Y525024D01*
X191433Y525079D01*
X191460Y525131D01*
X191471Y525199D01*
X191501Y525295D01*
X191504Y525394D01*
X191515Y525463D01*
X191515Y549275D01*
X191507Y549333D01*
X191509Y549391D01*
X191487Y549473D01*
X191475Y549557D01*
X191452Y549610D01*
X191437Y549666D01*
X191394Y549739D01*
X191359Y549816D01*
X191321Y549861D01*
X191292Y549911D01*
X191230Y549969D01*
X191176Y550033D01*
X191127Y550065D01*
X191084Y550105D01*
X191009Y550144D01*
X190939Y550191D01*
X190883Y550208D01*
X190831Y550235D01*
X190763Y550246D01*
X190668Y550276D01*
X190568Y550279D01*
X190500Y550290D01*
X147065Y550290D01*
X147065Y592989D01*
X147057Y593047D01*
X147059Y593105D01*
X147037Y593187D01*
X147025Y593271D01*
X147002Y593324D01*
X146987Y593380D01*
X146944Y593453D01*
X146909Y593530D01*
X146871Y593575D01*
X146842Y593625D01*
X146780Y593683D01*
X146726Y593747D01*
X146677Y593779D01*
X146634Y593819D01*
X146559Y593858D01*
X146489Y593905D01*
X146433Y593922D01*
X146381Y593949D01*
X146313Y593960D01*
X146218Y593990D01*
X146118Y593993D01*
X146050Y594004D01*
X101600Y594004D01*
X101542Y593996D01*
X101484Y593998D01*
X101402Y593976D01*
X101319Y593964D01*
X101265Y593941D01*
X101209Y593926D01*
X101136Y593883D01*
X101059Y593848D01*
X101014Y593810D01*
X100964Y593781D01*
X100906Y593719D01*
X100842Y593665D01*
X100810Y593616D01*
X100770Y593573D01*
X100731Y593498D01*
X100685Y593428D01*
X100667Y593372D01*
X100640Y593320D01*
X100629Y593252D01*
X100599Y593157D01*
X100596Y593057D01*
X100585Y592989D01*
X100585Y525463D01*
X100593Y525405D01*
X100591Y525346D01*
X100613Y525265D01*
X100625Y525181D01*
X100649Y525128D01*
X100663Y525071D01*
X100706Y524999D01*
X100741Y524922D01*
X100779Y524877D01*
X100809Y524827D01*
X100870Y524769D01*
X100925Y524705D01*
X100973Y524672D01*
X101016Y524632D01*
X101091Y524594D01*
X101161Y524547D01*
X101217Y524529D01*
X101269Y524503D01*
X101337Y524491D01*
X101432Y524461D01*
X101532Y524459D01*
X101600Y524447D01*
X190500Y524447D01*
X190558Y524455D01*
G37*
G36*
X109493Y110118D02*
X109493Y110118D01*
X109551Y110116D01*
X109633Y110138D01*
X109717Y110150D01*
X109770Y110174D01*
X109826Y110188D01*
X109899Y110231D01*
X109976Y110266D01*
X110021Y110304D01*
X110071Y110334D01*
X110129Y110395D01*
X110193Y110450D01*
X110225Y110498D01*
X110265Y110541D01*
X110304Y110616D01*
X110351Y110686D01*
X110368Y110742D01*
X110395Y110794D01*
X110406Y110862D01*
X110436Y110957D01*
X110439Y111057D01*
X110450Y111125D01*
X110450Y114144D01*
X111343Y115037D01*
X112124Y115037D01*
X112237Y115053D01*
X112352Y115063D01*
X112378Y115073D01*
X112405Y115077D01*
X112510Y115124D01*
X112617Y115165D01*
X112639Y115182D01*
X112664Y115193D01*
X112752Y115267D01*
X112844Y115337D01*
X112860Y115359D01*
X112881Y115377D01*
X112945Y115472D01*
X113014Y115565D01*
X113024Y115590D01*
X113039Y115614D01*
X113074Y115723D01*
X113114Y115831D01*
X113116Y115858D01*
X113125Y115885D01*
X113128Y115999D01*
X113137Y116114D01*
X113131Y116138D01*
X113132Y116169D01*
X113065Y116426D01*
X113062Y116441D01*
X112394Y118052D01*
X112394Y120073D01*
X113168Y121941D01*
X114597Y123370D01*
X116464Y124143D01*
X118486Y124143D01*
X120353Y123370D01*
X121782Y121941D01*
X122556Y120073D01*
X122556Y118052D01*
X121888Y116441D01*
X121860Y116330D01*
X121825Y116220D01*
X121824Y116193D01*
X121818Y116166D01*
X121821Y116051D01*
X121818Y115936D01*
X121825Y115909D01*
X121826Y115882D01*
X121861Y115772D01*
X121890Y115661D01*
X121904Y115637D01*
X121912Y115611D01*
X121976Y115515D01*
X122035Y115417D01*
X122055Y115398D01*
X122071Y115375D01*
X122158Y115301D01*
X122242Y115222D01*
X122267Y115209D01*
X122288Y115192D01*
X122393Y115145D01*
X122495Y115093D01*
X122520Y115089D01*
X122548Y115076D01*
X122812Y115040D01*
X122826Y115037D01*
X123607Y115037D01*
X124500Y114144D01*
X124500Y111125D01*
X124508Y111067D01*
X124506Y111009D01*
X124528Y110927D01*
X124540Y110844D01*
X124563Y110790D01*
X124578Y110734D01*
X124621Y110661D01*
X124656Y110584D01*
X124694Y110539D01*
X124723Y110489D01*
X124785Y110431D01*
X124839Y110367D01*
X124888Y110335D01*
X124931Y110295D01*
X125006Y110256D01*
X125076Y110210D01*
X125132Y110192D01*
X125184Y110165D01*
X125252Y110154D01*
X125347Y110124D01*
X125447Y110121D01*
X125515Y110110D01*
X128588Y110110D01*
X128645Y110118D01*
X128704Y110116D01*
X128785Y110138D01*
X128869Y110150D01*
X128922Y110174D01*
X128979Y110188D01*
X129051Y110231D01*
X129128Y110266D01*
X129173Y110304D01*
X129223Y110334D01*
X129281Y110395D01*
X129345Y110450D01*
X129378Y110498D01*
X129418Y110541D01*
X129456Y110616D01*
X129503Y110686D01*
X129521Y110742D01*
X129547Y110794D01*
X129559Y110862D01*
X129589Y110957D01*
X129591Y111057D01*
X129603Y111125D01*
X129603Y146050D01*
X129595Y146108D01*
X129596Y146166D01*
X129575Y146248D01*
X129563Y146332D01*
X129539Y146385D01*
X129524Y146441D01*
X129481Y146514D01*
X129447Y146591D01*
X129409Y146636D01*
X129379Y146686D01*
X129317Y146744D01*
X129263Y146808D01*
X129214Y146840D01*
X129172Y146880D01*
X129097Y146919D01*
X129026Y146966D01*
X128971Y146983D01*
X128919Y147010D01*
X128851Y147021D01*
X128755Y147051D01*
X128656Y147054D01*
X128588Y147065D01*
X47625Y147065D01*
X47567Y147057D01*
X47509Y147059D01*
X47427Y147037D01*
X47344Y147025D01*
X47290Y147002D01*
X47234Y146987D01*
X47161Y146944D01*
X47084Y146909D01*
X47039Y146871D01*
X46989Y146842D01*
X46931Y146780D01*
X46867Y146726D01*
X46835Y146677D01*
X46795Y146634D01*
X46756Y146559D01*
X46710Y146489D01*
X46692Y146433D01*
X46665Y146381D01*
X46654Y146313D01*
X46624Y146218D01*
X46621Y146118D01*
X46610Y146050D01*
X46610Y134365D01*
X15875Y134365D01*
X15817Y134357D01*
X15759Y134359D01*
X15677Y134337D01*
X15594Y134325D01*
X15540Y134302D01*
X15484Y134287D01*
X15411Y134244D01*
X15334Y134209D01*
X15289Y134171D01*
X15239Y134142D01*
X15181Y134080D01*
X15117Y134026D01*
X15085Y133977D01*
X15045Y133934D01*
X15006Y133859D01*
X14960Y133789D01*
X14942Y133733D01*
X14915Y133681D01*
X14904Y133613D01*
X14874Y133518D01*
X14871Y133418D01*
X14860Y133350D01*
X14860Y111125D01*
X14868Y111067D01*
X14866Y111009D01*
X14888Y110927D01*
X14900Y110844D01*
X14924Y110790D01*
X14938Y110734D01*
X14981Y110661D01*
X15016Y110584D01*
X15054Y110539D01*
X15084Y110489D01*
X15145Y110431D01*
X15200Y110367D01*
X15248Y110335D01*
X15291Y110295D01*
X15366Y110256D01*
X15436Y110210D01*
X15492Y110192D01*
X15544Y110165D01*
X15612Y110154D01*
X15707Y110124D01*
X15807Y110121D01*
X15875Y110110D01*
X109435Y110110D01*
X109493Y110118D01*
G37*
G36*
X158808Y48205D02*
X158808Y48205D01*
X158866Y48204D01*
X158948Y48225D01*
X159032Y48237D01*
X159085Y48261D01*
X159141Y48276D01*
X159214Y48319D01*
X159291Y48353D01*
X159336Y48391D01*
X159386Y48421D01*
X159444Y48483D01*
X159508Y48537D01*
X159540Y48586D01*
X159580Y48628D01*
X159619Y48703D01*
X159666Y48774D01*
X159683Y48829D01*
X159710Y48881D01*
X159721Y48949D01*
X159751Y49045D01*
X159754Y49144D01*
X159765Y49213D01*
X159765Y106363D01*
X159757Y106420D01*
X159759Y106479D01*
X159737Y106560D01*
X159725Y106644D01*
X159702Y106697D01*
X159687Y106754D01*
X159644Y106826D01*
X159609Y106903D01*
X159571Y106948D01*
X159542Y106998D01*
X159480Y107056D01*
X159426Y107120D01*
X159377Y107153D01*
X159334Y107193D01*
X159259Y107231D01*
X159189Y107278D01*
X159133Y107296D01*
X159081Y107322D01*
X159013Y107334D01*
X158918Y107364D01*
X158818Y107366D01*
X158750Y107378D01*
X125515Y107378D01*
X125457Y107370D01*
X125399Y107371D01*
X125317Y107350D01*
X125233Y107338D01*
X125180Y107314D01*
X125124Y107299D01*
X125051Y107256D01*
X124974Y107222D01*
X124929Y107184D01*
X124879Y107154D01*
X124821Y107092D01*
X124757Y107038D01*
X124725Y106989D01*
X124685Y106947D01*
X124646Y106872D01*
X124599Y106801D01*
X124582Y106746D01*
X124555Y106694D01*
X124544Y106626D01*
X124514Y106530D01*
X124511Y106431D01*
X124500Y106363D01*
X124500Y102881D01*
X123607Y101988D01*
X112713Y101988D01*
X112655Y101980D01*
X112596Y101981D01*
X112515Y101960D01*
X112431Y101948D01*
X112378Y101924D01*
X112321Y101909D01*
X112249Y101866D01*
X112172Y101832D01*
X112127Y101794D01*
X112077Y101764D01*
X112019Y101702D01*
X111955Y101648D01*
X111922Y101599D01*
X111882Y101557D01*
X111844Y101482D01*
X111797Y101411D01*
X111779Y101356D01*
X111753Y101304D01*
X111741Y101236D01*
X111711Y101140D01*
X111709Y101041D01*
X111697Y100973D01*
X111697Y99052D01*
X111705Y98995D01*
X111704Y98936D01*
X111725Y98855D01*
X111737Y98771D01*
X111761Y98718D01*
X111776Y98661D01*
X111819Y98589D01*
X111853Y98512D01*
X111891Y98467D01*
X111921Y98417D01*
X111983Y98359D01*
X112037Y98295D01*
X112086Y98262D01*
X112128Y98222D01*
X112203Y98184D01*
X112274Y98137D01*
X112329Y98119D01*
X112381Y98093D01*
X112449Y98081D01*
X112545Y98051D01*
X112644Y98049D01*
X112713Y98037D01*
X123607Y98037D01*
X124500Y97144D01*
X124500Y85881D01*
X123607Y84988D01*
X114964Y84988D01*
X114877Y84976D01*
X114790Y84973D01*
X114737Y84956D01*
X114682Y84948D01*
X114603Y84912D01*
X114519Y84885D01*
X114480Y84857D01*
X114423Y84832D01*
X114310Y84736D01*
X114246Y84690D01*
X112376Y82820D01*
X112323Y82750D01*
X112263Y82686D01*
X112238Y82637D01*
X112205Y82593D01*
X112174Y82511D01*
X112134Y82433D01*
X112126Y82386D01*
X112103Y82327D01*
X112091Y82179D01*
X112078Y82102D01*
X112078Y49213D01*
X112086Y49155D01*
X112085Y49096D01*
X112106Y49015D01*
X112118Y48931D01*
X112142Y48878D01*
X112157Y48821D01*
X112200Y48749D01*
X112234Y48672D01*
X112272Y48627D01*
X112302Y48577D01*
X112364Y48519D01*
X112418Y48455D01*
X112467Y48422D01*
X112509Y48382D01*
X112584Y48344D01*
X112655Y48297D01*
X112710Y48279D01*
X112762Y48253D01*
X112830Y48241D01*
X112926Y48211D01*
X113025Y48209D01*
X113093Y48197D01*
X158750Y48197D01*
X158808Y48205D01*
G37*
G36*
X104833Y40268D02*
X104833Y40268D01*
X104891Y40266D01*
X104973Y40288D01*
X105057Y40300D01*
X105110Y40324D01*
X105166Y40338D01*
X105239Y40381D01*
X105316Y40416D01*
X105361Y40454D01*
X105411Y40484D01*
X105469Y40545D01*
X105533Y40600D01*
X105565Y40648D01*
X105605Y40691D01*
X105644Y40766D01*
X105691Y40836D01*
X105708Y40892D01*
X105735Y40944D01*
X105746Y41012D01*
X105776Y41107D01*
X105779Y41207D01*
X105790Y41275D01*
X105790Y103188D01*
X105782Y103245D01*
X105784Y103304D01*
X105762Y103385D01*
X105750Y103469D01*
X105727Y103522D01*
X105712Y103579D01*
X105669Y103651D01*
X105634Y103728D01*
X105596Y103773D01*
X105567Y103823D01*
X105505Y103881D01*
X105451Y103945D01*
X105402Y103978D01*
X105359Y104018D01*
X105284Y104056D01*
X105214Y104103D01*
X105158Y104121D01*
X105106Y104147D01*
X105038Y104159D01*
X104943Y104189D01*
X104843Y104191D01*
X104775Y104203D01*
X66675Y104203D01*
X66617Y104195D01*
X66559Y104196D01*
X66477Y104175D01*
X66394Y104163D01*
X66340Y104139D01*
X66284Y104124D01*
X66211Y104081D01*
X66134Y104047D01*
X66089Y104009D01*
X66039Y103979D01*
X65981Y103917D01*
X65917Y103863D01*
X65885Y103814D01*
X65845Y103772D01*
X65806Y103697D01*
X65760Y103626D01*
X65742Y103571D01*
X65715Y103519D01*
X65704Y103451D01*
X65674Y103355D01*
X65671Y103256D01*
X65660Y103188D01*
X65660Y67505D01*
X65672Y67418D01*
X65675Y67331D01*
X65692Y67278D01*
X65700Y67223D01*
X65735Y67143D01*
X65762Y67060D01*
X65790Y67021D01*
X65816Y66964D01*
X65912Y66850D01*
X65957Y66787D01*
X66787Y65957D01*
X66787Y54693D01*
X65957Y53863D01*
X65905Y53794D01*
X65845Y53730D01*
X65819Y53680D01*
X65786Y53636D01*
X65755Y53554D01*
X65715Y53476D01*
X65707Y53429D01*
X65685Y53370D01*
X65673Y53223D01*
X65660Y53145D01*
X65660Y41275D01*
X65668Y41217D01*
X65666Y41159D01*
X65688Y41077D01*
X65700Y40994D01*
X65724Y40940D01*
X65738Y40884D01*
X65781Y40811D01*
X65816Y40734D01*
X65854Y40689D01*
X65884Y40639D01*
X65945Y40581D01*
X66000Y40517D01*
X66048Y40485D01*
X66091Y40445D01*
X66166Y40406D01*
X66236Y40360D01*
X66292Y40342D01*
X66344Y40315D01*
X66412Y40304D01*
X66507Y40274D01*
X66607Y40271D01*
X66675Y40260D01*
X104775Y40260D01*
X104833Y40268D01*
G37*
G36*
X171508Y110118D02*
X171508Y110118D01*
X171566Y110116D01*
X171648Y110138D01*
X171732Y110150D01*
X171785Y110174D01*
X171841Y110188D01*
X171914Y110231D01*
X171991Y110266D01*
X172036Y110304D01*
X172086Y110334D01*
X172144Y110395D01*
X172208Y110450D01*
X172240Y110498D01*
X172280Y110541D01*
X172319Y110616D01*
X172366Y110686D01*
X172383Y110742D01*
X172410Y110794D01*
X172421Y110862D01*
X172451Y110957D01*
X172454Y111057D01*
X172465Y111125D01*
X172465Y146050D01*
X172457Y146108D01*
X172459Y146166D01*
X172437Y146248D01*
X172425Y146332D01*
X172402Y146385D01*
X172387Y146441D01*
X172344Y146514D01*
X172309Y146591D01*
X172271Y146636D01*
X172242Y146686D01*
X172180Y146744D01*
X172126Y146808D01*
X172077Y146840D01*
X172034Y146880D01*
X171959Y146919D01*
X171889Y146966D01*
X171833Y146983D01*
X171781Y147010D01*
X171713Y147021D01*
X171618Y147051D01*
X171518Y147054D01*
X171450Y147065D01*
X134938Y147065D01*
X134880Y147057D01*
X134821Y147059D01*
X134740Y147037D01*
X134656Y147025D01*
X134603Y147002D01*
X134546Y146987D01*
X134474Y146944D01*
X134397Y146909D01*
X134352Y146871D01*
X134302Y146842D01*
X134244Y146780D01*
X134180Y146726D01*
X134147Y146677D01*
X134107Y146634D01*
X134069Y146559D01*
X134022Y146489D01*
X134004Y146433D01*
X133978Y146381D01*
X133966Y146313D01*
X133936Y146218D01*
X133934Y146118D01*
X133922Y146050D01*
X133922Y111125D01*
X133930Y111067D01*
X133929Y111009D01*
X133950Y110927D01*
X133962Y110844D01*
X133986Y110790D01*
X134001Y110734D01*
X134044Y110661D01*
X134078Y110584D01*
X134116Y110539D01*
X134146Y110489D01*
X134208Y110431D01*
X134262Y110367D01*
X134311Y110335D01*
X134353Y110295D01*
X134428Y110256D01*
X134499Y110210D01*
X134554Y110192D01*
X134606Y110165D01*
X134674Y110154D01*
X134770Y110124D01*
X134869Y110121D01*
X134938Y110110D01*
X171450Y110110D01*
X171508Y110118D01*
G37*
D10*
X40450Y502913D02*
X40450Y506218D01*
X38797Y507870D01*
X35492Y507870D01*
X33840Y506218D01*
X33840Y502913D01*
X35492Y501260D01*
X38797Y501260D01*
X40450Y502913D01*
X40450Y512736D02*
X40450Y516041D01*
X40450Y512736D02*
X38797Y511083D01*
X35492Y511083D01*
X33840Y512736D01*
X33840Y516041D01*
X35492Y517693D01*
X37145Y517693D01*
X37145Y511083D01*
X30535Y520906D02*
X30535Y522559D01*
X40450Y522559D01*
X40450Y524211D02*
X40450Y520906D01*
X43754Y527455D02*
X33840Y527455D01*
X33840Y532412D01*
X35492Y534065D01*
X38797Y534065D01*
X40450Y532412D01*
X40450Y527455D01*
X40450Y537278D02*
X33840Y537278D01*
X37145Y537278D02*
X33840Y540583D01*
X33840Y542235D01*
X33840Y545464D02*
X33840Y547116D01*
X40450Y547116D01*
X40450Y545464D02*
X40450Y548769D01*
X30535Y547116D02*
X28883Y547116D01*
X33840Y552012D02*
X40450Y552012D01*
X33840Y552012D02*
X33840Y556970D01*
X35492Y558622D01*
X40450Y558622D01*
X33840Y561835D02*
X33840Y568445D01*
X40450Y561835D01*
X40450Y568445D01*
X40450Y571658D02*
X38797Y571658D01*
X38797Y573311D01*
X40450Y573311D01*
X40450Y571658D01*
X40450Y578222D02*
X40450Y581527D01*
X38797Y583179D01*
X35492Y583179D01*
X33840Y581527D01*
X33840Y578222D01*
X35492Y576570D01*
X38797Y576570D01*
X40450Y578222D01*
X40450Y586393D02*
X33840Y586393D01*
X33840Y589697D02*
X37145Y586393D01*
X33840Y589697D02*
X33840Y591350D01*
X43754Y597883D02*
X43754Y599536D01*
X42102Y601188D01*
X33840Y601188D01*
X33840Y596231D01*
X35492Y594578D01*
X38797Y594578D01*
X40450Y596231D01*
X40450Y601188D01*
D11*
X35488Y404813D03*
X18488Y404813D03*
D12*
X158750Y391088D03*
X158750Y374088D03*
X84138Y483163D03*
X84138Y466163D03*
D11*
X83113Y342900D03*
X66113Y342900D03*
D12*
X125413Y502213D03*
X125413Y485213D03*
D13*
X71438Y189025D03*
X61938Y211025D03*
X80938Y211025D03*
D12*
X41838Y363538D03*
X24838Y363538D03*
X64063Y488950D03*
X47063Y488950D03*
D11*
X31750Y438713D03*
X31750Y421713D03*
D12*
X35950Y342900D03*
X52950Y342900D03*
X118038Y468313D03*
X101038Y468313D03*
D11*
X158750Y451413D03*
X158750Y434413D03*
X158750Y421250D03*
X158750Y404250D03*
D12*
X40713Y468313D03*
X57713Y468313D03*
X37075Y234950D03*
X20075Y234950D03*
X20075Y214313D03*
X37075Y214313D03*
X28013Y193675D03*
X45013Y193675D03*
X148200Y468313D03*
X131200Y468313D03*
D11*
X157163Y510150D03*
X157163Y493150D03*
X228600Y472050D03*
X228600Y455050D03*
D14*
X52324Y434400D03*
X52324Y426400D03*
X52324Y418400D03*
X52324Y410400D03*
X52324Y402400D03*
X52324Y394400D03*
X52324Y386400D03*
X52324Y378400D03*
D15*
X67250Y363474D03*
X75250Y363474D03*
X83250Y363474D03*
X91250Y363474D03*
X99250Y363474D03*
X107250Y363474D03*
X115250Y363474D03*
X123250Y363474D03*
D14*
X138176Y378400D03*
X138176Y386400D03*
X138176Y394400D03*
X138176Y402400D03*
X138176Y410400D03*
X138176Y418400D03*
X138176Y426400D03*
X138176Y434400D03*
D15*
X123250Y449326D03*
X115250Y449326D03*
X107250Y449326D03*
X99250Y449326D03*
X91250Y449326D03*
X83250Y449326D03*
X75250Y449326D03*
X67250Y449326D03*
D11*
X20075Y288925D03*
X37075Y288925D03*
X20075Y314325D03*
X37075Y314325D03*
D12*
X117475Y216925D03*
X117475Y233925D03*
D11*
X233363Y372038D03*
X233363Y355038D03*
D12*
X18488Y384175D03*
X35488Y384175D03*
D16*
X60325Y281125D03*
X60325Y322125D03*
D11*
X64525Y228600D03*
X81525Y228600D03*
X64525Y249238D03*
X81525Y249238D03*
D17*
X44338Y261938D03*
X22338Y252438D03*
X22338Y271438D03*
D12*
X199463Y176213D03*
X216463Y176213D03*
X216463Y331788D03*
X199463Y331788D03*
D18*
X216875Y277813D03*
X195875Y277813D03*
D12*
X216463Y311150D03*
X199463Y311150D03*
D18*
X216875Y293688D03*
X195875Y293688D03*
D11*
X117475Y108513D03*
X117475Y91513D03*
D19*
X161925Y200025D03*
X161925Y225425D03*
X187325Y200025D03*
X187325Y225425D03*
X212725Y200025D03*
X212725Y225425D03*
D12*
X138113Y216925D03*
X138113Y233925D03*
D11*
X134375Y355600D03*
X151375Y355600D03*
D15*
X158175Y338201D03*
X150175Y338201D03*
X142175Y338201D03*
X134175Y338201D03*
X126175Y338201D03*
X118175Y338201D03*
X110175Y338201D03*
X102175Y338201D03*
D14*
X87249Y323275D03*
X87249Y315275D03*
X87249Y307275D03*
X87249Y299275D03*
X87249Y291275D03*
X87249Y283275D03*
X87249Y275275D03*
X87249Y267275D03*
D15*
X102175Y252349D03*
X110175Y252349D03*
X118175Y252349D03*
X126175Y252349D03*
X134175Y252349D03*
X142175Y252349D03*
X150175Y252349D03*
X158175Y252349D03*
D14*
X173101Y267275D03*
X173101Y275275D03*
X173101Y283275D03*
X173101Y291275D03*
X173101Y299275D03*
X173101Y307275D03*
X173101Y315275D03*
X173101Y323275D03*
D20*
X200025Y445100D03*
X200025Y393100D03*
X212725Y445100D03*
X187325Y445100D03*
X174625Y445100D03*
X212725Y393100D03*
X187325Y393100D03*
X174625Y393100D03*
D11*
X228600Y424888D03*
X228600Y441888D03*
D12*
X228600Y411725D03*
X228600Y394725D03*
D21*
X187325Y347775D03*
X177825Y369775D03*
X196825Y369775D03*
D11*
X59763Y60325D03*
X76763Y60325D03*
D22*
X87313Y95888D03*
X87313Y135888D03*
D23*
X55225Y155575D03*
X14525Y155575D03*
D11*
X233363Y341875D03*
X233363Y324875D03*
D18*
X212725Y348275D03*
X212725Y369275D03*
D24*
X126038Y63500D03*
X93038Y63500D03*
D25*
X209300Y69850D03*
X146300Y69850D03*
D26*
X31750Y120400D03*
X31750Y57400D03*
D27*
X136500Y157463D03*
X127000Y157463D03*
X117500Y157463D03*
X117500Y131463D03*
X127000Y131463D03*
X136500Y131463D03*
D12*
X152400Y140725D03*
X152400Y157725D03*
X115325Y173038D03*
X132325Y173038D03*
D11*
X98425Y156600D03*
X98425Y173600D03*
D12*
X77788Y156600D03*
X77788Y173600D03*
D28*
X210413Y117475D03*
X167413Y117475D03*
D29*
X149225Y96125D03*
X149225Y126125D03*
D30*
X223688Y113738D03*
X236688Y113738D03*
X236688Y130738D03*
X230188Y130738D03*
X223688Y130738D03*
D11*
X233363Y270438D03*
X233363Y253438D03*
D12*
X233363Y300600D03*
X233363Y283600D03*
D11*
X231775Y100575D03*
X231775Y83575D03*
D31*
X123825Y574675D03*
X174625Y574675D03*
X73025Y574675D03*
D32*
X123825Y22225D03*
X149225Y22225D03*
D31*
X85725Y22225D03*
D32*
X174625Y22225D03*
D20*
X187325Y485175D03*
X187325Y537175D03*
X174625Y485175D03*
X200025Y485175D03*
X212725Y485175D03*
X174625Y537175D03*
X200025Y537175D03*
X212725Y537175D03*
D12*
X104775Y493150D03*
X104775Y510150D03*
D33*
X174625Y485775D03*
X174625Y479425D03*
X117475Y206375D03*
D34*
X31750Y438713D02*
X31750Y449263D01*
D33*
X31750Y449263D03*
X125413Y512763D03*
X93663Y436563D03*
D34*
X99250Y442150D02*
X99250Y449326D01*
X99250Y442150D02*
X93663Y436563D01*
X91250Y438975D02*
X91250Y449326D01*
X91250Y438975D02*
X93663Y436563D01*
D35*
X84138Y483163D02*
X84138Y493713D01*
D33*
X84138Y493713D03*
X7938Y404813D03*
D34*
X18488Y404813D01*
D36*
X158750Y374650D02*
X158750Y374088D01*
X161925Y363538D01*
D33*
X161925Y363538D03*
X9525Y288925D03*
X9525Y314325D03*
D34*
X125413Y502213D02*
X125413Y512763D01*
D33*
X53975Y249238D03*
X53975Y228600D03*
D34*
X53975Y249238D02*
X64525Y249238D01*
X64525Y228600D02*
X53975Y228600D01*
D33*
X117475Y265113D03*
D35*
X151375Y355600D02*
X161925Y355600D01*
D33*
X161925Y355600D03*
D34*
X126175Y338201D02*
X126175Y327850D01*
X127000Y323850D01*
D33*
X127000Y323850D03*
X49213Y207963D03*
D34*
X52275Y211025D02*
X61938Y211025D01*
X52275Y211025D02*
X49213Y207963D01*
X126175Y252349D02*
X126175Y262763D01*
X123825Y265113D01*
D33*
X123825Y265113D03*
X200025Y463550D03*
D36*
X200025Y445100D01*
X212725Y409575D02*
X212725Y393100D01*
D33*
X212725Y409575D03*
D36*
X214350Y394725D02*
X228600Y394725D01*
X214350Y394725D02*
X212725Y393100D01*
D33*
X198438Y350838D03*
X198438Y344488D03*
D36*
X187438Y347663D02*
X187325Y347775D01*
D33*
X174625Y492125D03*
X238125Y311150D03*
X47625Y234950D03*
D35*
X37075Y234950D01*
D33*
X9525Y271463D03*
D35*
X22313Y271463D01*
X22338Y271438D01*
D33*
X146050Y63500D03*
X139700Y63500D03*
X146050Y69850D03*
X139700Y69850D03*
X152400Y69850D03*
X152400Y63500D03*
X139700Y76200D03*
X146050Y76200D03*
X152400Y76200D03*
X222250Y141288D03*
D37*
X117475Y206375D02*
X117475Y216925D01*
D36*
X59763Y60325D02*
X44450Y60325D01*
D33*
X19050Y161925D03*
X19050Y155575D03*
X19050Y149225D03*
D37*
X127000Y157463D02*
X127000Y167713D01*
X132325Y173038D01*
D33*
X142875Y169863D03*
X142875Y176213D03*
D38*
X139700Y173038D02*
X132325Y173038D01*
X139700Y173038D02*
X142875Y176213D01*
X139700Y173038D02*
X142875Y169863D01*
D33*
X233363Y314325D03*
D34*
X230188Y138113D02*
X230188Y130738D01*
X230188Y138113D02*
X227013Y141288D01*
X222250Y141288D01*
D33*
X182563Y331788D03*
D35*
X199463Y331788D01*
X195263Y347663D02*
X187438Y347663D01*
X195263Y347663D02*
X198438Y350838D01*
X195263Y347663D02*
X198438Y344488D01*
D33*
X12700Y161925D03*
X12700Y155575D03*
X12700Y149225D03*
D35*
X233363Y300600D02*
X233363Y311150D01*
X238125Y311150D01*
X233363Y314325D02*
X233363Y324875D01*
X20075Y314325D02*
X9525Y314325D01*
X9525Y288925D02*
X20075Y288925D01*
D33*
X25400Y63500D03*
X31750Y63500D03*
X38100Y63500D03*
X25400Y57150D03*
X31750Y57150D03*
X38100Y57150D03*
X25400Y50800D03*
X31750Y50800D03*
X38100Y50800D03*
D34*
X41275Y60325D02*
X44450Y60325D01*
X41275Y60325D02*
X38100Y57150D01*
D33*
X123825Y206375D03*
D37*
X117475Y216925D02*
X138113Y216925D01*
D34*
X199463Y311150D02*
X199463Y331788D01*
D33*
X104775Y482600D03*
D36*
X104775Y493150D01*
D34*
X228600Y482600D02*
X228600Y472050D01*
D33*
X228600Y482600D03*
X119063Y395288D03*
D36*
X64263Y402400D02*
X52324Y402400D01*
X64263Y402400D02*
X68263Y398463D01*
D33*
X68263Y398463D03*
D36*
X52324Y402400D02*
X39488Y402400D01*
D34*
X35488Y404813D01*
D36*
X138176Y386400D02*
X147563Y386400D01*
X158750Y391088D01*
X138176Y394400D02*
X129288Y394400D01*
X119063Y395288D01*
X129538Y386400D02*
X138176Y386400D01*
X129538Y386400D02*
X119063Y395288D01*
D34*
X134375Y355600D02*
X134375Y338401D01*
X134175Y338201D01*
D33*
X136525Y323850D03*
D34*
X134175Y326200D02*
X134175Y338201D01*
X134175Y326200D02*
X136525Y323850D01*
D37*
X136525Y309563D01*
X117475Y290513D01*
X117475Y282575D01*
D33*
X117475Y282575D03*
D36*
X187325Y445100D02*
X187325Y463550D01*
D33*
X187325Y463550D03*
D36*
X228600Y424888D02*
X228600Y411725D01*
X206375Y419100D02*
X195263Y419100D01*
X206375Y419100D02*
X214313Y419100D01*
X220100Y424888D01*
X228600Y424888D01*
D34*
X18488Y391550D02*
X18488Y384175D01*
X18488Y391550D02*
X22225Y395288D01*
X31750Y395288D01*
X35488Y399025D02*
X35488Y404813D01*
X35488Y399025D02*
X31750Y395288D01*
D36*
X187325Y427038D02*
X187325Y445100D01*
X187325Y427038D02*
X195263Y419100D01*
D34*
X206375Y419100D02*
X206375Y375625D01*
X22338Y252438D02*
X20613Y252438D01*
X28575Y244475D01*
X28575Y194238D02*
X28013Y193675D01*
X34925Y177800D02*
X76200Y177800D01*
X34925Y177800D02*
X28013Y184713D01*
X28013Y193675D01*
X206375Y375625D02*
X212725Y369275D01*
X215488Y372038D02*
X233363Y372038D01*
X215488Y372038D02*
X212725Y369275D01*
D36*
X118175Y252349D02*
X118175Y234625D01*
X117475Y233925D01*
X104775Y228600D02*
X104775Y206375D01*
X104775Y228600D02*
X110100Y233925D01*
X117475Y233925D01*
D34*
X28575Y244475D02*
X28575Y194238D01*
X37075Y214313D02*
X44450Y214313D01*
X49213Y219075D01*
D33*
X49213Y219075D03*
X84138Y138113D03*
X90488Y138113D03*
X90488Y131763D03*
X84138Y131763D03*
X82550Y434975D03*
D37*
X83250Y449326D02*
X83250Y465275D01*
X84138Y466163D01*
X83250Y449326D02*
X83250Y435675D01*
X82550Y434975D01*
D34*
X118825Y36750D02*
X123825Y22225D01*
X118825Y36750D02*
X109538Y46038D01*
X109538Y83575D01*
X117475Y91513D01*
X52388Y363538D02*
X41838Y363538D01*
X52388Y363538D02*
X87313Y398463D01*
X87313Y412750D01*
D33*
X87313Y412750D03*
D34*
X107188Y402400D02*
X138176Y402400D01*
X107188Y402400D02*
X96838Y412750D01*
X87313Y412750D01*
X142875Y482600D02*
X142875Y495300D01*
X149225Y501650D01*
X166688Y501650D01*
X173038Y508000D01*
X193675Y508000D01*
X206375Y520700D01*
X206375Y549275D01*
X200025Y555625D01*
X190500Y555625D01*
X174625Y574675D02*
X158750Y559725D01*
D33*
X142875Y482600D03*
D34*
X190500Y555625D02*
X190500Y558800D01*
X174625Y574675D01*
D33*
X82550Y512763D03*
D34*
X67250Y497463D02*
X67250Y492125D01*
X67250Y497463D02*
X82550Y512763D01*
X64075Y488950D02*
X64063Y488950D01*
X64075Y488950D02*
X67250Y492125D01*
X67250Y485775D02*
X67250Y449326D01*
X67250Y485775D02*
X64075Y488950D01*
X125413Y436563D02*
X129150Y440300D01*
X125413Y436563D02*
X115888Y436563D01*
X107950Y428625D01*
X79375Y428625D01*
X75250Y432750D01*
X75250Y449326D01*
X157163Y450850D02*
X158750Y451413D01*
X157163Y450850D02*
X146613Y440300D01*
X75250Y449326D02*
X75250Y494350D01*
X129150Y440300D02*
X146613Y440300D01*
X92075Y511175D02*
X92075Y555625D01*
X76200Y565150D01*
X71438Y566063D01*
X73025Y574675D01*
X92075Y511175D02*
X75250Y494350D01*
X92075Y511175D02*
X103750Y511175D01*
X104775Y510150D01*
X221225Y455050D02*
X228600Y455050D01*
X221225Y455050D02*
X206375Y469900D01*
X190500Y469900D01*
X187325Y473075D01*
X187325Y485175D01*
X148200Y468313D02*
X149225Y465138D01*
X179388Y465138D01*
X187325Y473075D01*
X97725Y283275D02*
X87249Y283275D01*
X97725Y283275D02*
X100013Y280988D01*
X100013Y265113D01*
X93663Y258763D01*
X76200Y258763D01*
X73025Y255588D01*
X73025Y218938D01*
X80938Y211025D01*
X57150Y193675D02*
X45013Y193675D01*
X57150Y193675D02*
X63500Y200025D01*
X71438Y200025D01*
X80938Y209525D01*
X80938Y211025D01*
X44338Y261938D02*
X14288Y261938D01*
X11113Y258763D01*
X11113Y243913D01*
X20075Y234950D01*
X20075Y214313D01*
X44338Y261938D02*
X71438Y261938D01*
X76775Y267275D02*
X87249Y267275D01*
X76775Y267275D02*
X71438Y261938D01*
X52324Y426400D02*
X43500Y426400D01*
X41275Y428625D01*
D33*
X61913Y534988D03*
D34*
X41275Y466725D02*
X41275Y428625D01*
X41275Y466725D02*
X40713Y468313D01*
X41275Y468313D01*
X42863Y469900D01*
X44450Y469900D01*
X44450Y486338D01*
X47063Y488950D01*
X47063Y497913D02*
X61913Y512763D01*
X61913Y534988D01*
X47063Y497913D02*
X47063Y488950D01*
X52324Y418400D02*
X35063Y418400D01*
X31750Y421713D01*
X35950Y350275D02*
X35950Y342900D01*
X35950Y350275D02*
X38100Y352425D01*
X73025Y352425D01*
X75250Y354650D01*
X75250Y363474D01*
X83250Y363474D02*
X83250Y344350D01*
X83113Y342900D01*
X66113Y342900D02*
X52950Y342900D01*
X52324Y378400D02*
X48200Y378400D01*
X42863Y373063D01*
X34363Y373063D01*
X24838Y363538D01*
X107250Y449326D02*
X107250Y462100D01*
X101038Y468313D01*
X57713Y443938D02*
X77788Y423863D01*
X158750Y421250D02*
X158750Y434413D01*
X155900Y418400D02*
X138176Y418400D01*
X155900Y418400D02*
X158750Y421250D01*
X119063Y423863D02*
X77788Y423863D01*
X119063Y423863D02*
X124525Y418400D01*
X138176Y418400D01*
X57713Y443938D02*
X57713Y468313D01*
X138176Y410400D02*
X152600Y410400D01*
X158750Y404250D01*
X115250Y449326D02*
X115250Y465525D01*
X118038Y468313D01*
X118038Y477838D01*
X125413Y485213D01*
X52324Y386400D02*
X39300Y386400D01*
X35488Y384175D01*
D33*
X160338Y473075D03*
X107950Y411163D03*
D34*
X80963Y398463D02*
X73025Y390525D01*
X80963Y398463D02*
X80963Y415925D01*
X84138Y419100D01*
X100013Y419100D01*
X107950Y411163D01*
X73025Y390525D02*
X65088Y390525D01*
X61913Y393700D01*
X53024Y393700D01*
X52324Y394400D01*
X160338Y473075D02*
X160338Y492688D01*
X157163Y493150D01*
X157163Y510150D02*
X157163Y528638D01*
X158750Y530225D01*
X52525Y288925D02*
X37075Y288925D01*
X52525Y288925D02*
X60325Y281125D01*
X78675Y307275D02*
X87249Y307275D01*
X78675Y307275D02*
X68263Y296863D01*
X68263Y280988D01*
X68400Y281125D01*
X60325Y281125D01*
X52525Y314325D02*
X37075Y314325D01*
X52525Y314325D02*
X60325Y322125D01*
X80325Y315275D02*
X87249Y315275D01*
X80325Y315275D02*
X69850Y304800D01*
X63500Y304800D01*
X60325Y307975D01*
X60325Y317500D01*
X67175Y315275D01*
X60325Y322125D01*
D33*
X74613Y404813D03*
D34*
X69025Y410400D02*
X52324Y410400D01*
X69025Y410400D02*
X74613Y404813D01*
D33*
X95250Y404813D03*
D34*
X142175Y339025D02*
X142175Y338201D01*
X142175Y339025D02*
X142875Y339725D01*
X142875Y365125D01*
X139700Y368300D01*
X133350Y368300D01*
X125413Y376238D01*
X115888Y376238D01*
X112713Y379413D01*
X112713Y387350D01*
X95250Y404813D01*
D33*
X133350Y455613D03*
D34*
X133350Y466163D01*
X131200Y468313D01*
D33*
X114300Y350838D03*
X101600Y314325D03*
D34*
X95825Y323275D02*
X87249Y323275D01*
X95825Y323275D02*
X101600Y317500D01*
X101600Y314325D01*
X115250Y351788D02*
X115250Y363474D01*
X115250Y351788D02*
X114300Y350838D01*
X107250Y348550D02*
X107250Y363474D01*
X102175Y343475D02*
X102175Y338201D01*
X102175Y343475D02*
X107250Y348550D01*
X138176Y378400D02*
X139000Y378400D01*
X138176Y378400D02*
X129600Y378400D01*
X125413Y382588D01*
X119063Y382588D01*
D33*
X119063Y382588D03*
X101600Y288925D03*
D34*
X99250Y291275D02*
X87249Y291275D01*
X99250Y291275D02*
X101600Y288925D01*
X99250Y351663D02*
X99250Y363474D01*
X99250Y351663D02*
X98425Y350838D01*
D33*
X98425Y350838D03*
X158750Y288925D03*
D34*
X161100Y291275D02*
X173101Y291275D01*
X161100Y291275D02*
X158750Y288925D01*
D33*
X125413Y428625D03*
D34*
X127638Y426400D02*
X138176Y426400D01*
X127638Y426400D02*
X125413Y428625D01*
X102175Y252349D02*
X102175Y249238D01*
D33*
X93663Y249238D03*
D34*
X102175Y249238D01*
X93663Y249238D02*
X81525Y249238D01*
X81525Y228600D02*
X93663Y228600D01*
X110175Y245113D01*
X110175Y252349D01*
X110175Y261300D01*
X104775Y266700D01*
X104775Y279400D01*
X109538Y284163D01*
X109538Y315913D01*
X92075Y333375D01*
X92075Y362649D01*
X91250Y363474D01*
X158175Y252349D02*
X163576Y252349D01*
X174625Y241300D01*
X174625Y193113D01*
X199463Y184713D02*
X199463Y176213D01*
X199463Y184713D02*
X196850Y187325D01*
X180413Y187325D01*
X174625Y193113D01*
X207963Y303213D02*
X207963Y323288D01*
X207963Y303213D02*
X206375Y301625D01*
X206375Y280988D01*
X209550Y277813D02*
X216875Y277813D01*
X209550Y277813D02*
X206375Y280988D01*
X207963Y323288D02*
X216463Y331788D01*
X216875Y305975D02*
X216875Y293688D01*
X216875Y305975D02*
X216463Y311150D01*
X192063Y275275D02*
X173101Y275275D01*
X192063Y275275D02*
X195875Y277813D01*
X181675Y283275D02*
X173101Y283275D01*
X181675Y283275D02*
X184150Y285750D01*
X185738Y293688D02*
X195875Y293688D01*
X185738Y293688D02*
X184150Y292100D01*
X184150Y285750D01*
D33*
X214313Y165100D03*
D34*
X214313Y174063D01*
X216463Y176213D01*
X142175Y261050D02*
X128588Y274638D01*
X112713Y274638D01*
X111125Y273050D01*
D33*
X111125Y273050D03*
X117475Y119063D03*
D34*
X117475Y108513D01*
X142175Y252349D02*
X142175Y261050D01*
D36*
X134175Y252349D02*
X134175Y237863D01*
X138113Y233925D01*
D33*
X117475Y323850D03*
D34*
X118175Y327725D02*
X118175Y338201D01*
X118175Y327725D02*
X117475Y323850D01*
X212725Y441888D02*
X228600Y441888D01*
X212725Y441888D02*
X212725Y445100D01*
D33*
X212725Y427038D03*
D36*
X212725Y441888D01*
D33*
X119063Y312738D03*
X174625Y412750D03*
D34*
X174625Y445100D01*
X110175Y338201D02*
X110175Y321625D01*
X119063Y312738D01*
X146050Y317500D02*
X158175Y329625D01*
X146050Y317500D02*
X146050Y290513D01*
X138113Y282575D01*
D33*
X138113Y282575D03*
D34*
X158175Y329625D02*
X158175Y338201D01*
X150175Y338201D02*
X150175Y327975D01*
X141288Y319088D01*
X141288Y301625D01*
X130175Y290513D01*
D33*
X130175Y290513D03*
X101600Y298450D03*
D34*
X100838Y299275D02*
X87249Y299275D01*
X100838Y299275D02*
X101600Y298450D01*
X187325Y200025D02*
X200025Y212725D01*
X200025Y233363D01*
D33*
X149225Y271463D03*
D34*
X153988Y271463D01*
X180975Y244475D01*
X188913Y244475D01*
X200025Y233363D01*
D33*
X158750Y298450D03*
D34*
X161925Y301938D01*
X177800Y342900D02*
X177800Y355600D01*
X180975Y358775D01*
X229625Y358775D02*
X233363Y355038D01*
X177800Y342900D02*
X161925Y327025D01*
X161925Y316225D01*
X172151Y316225D01*
X173101Y315275D01*
X161925Y316225D02*
X161925Y301938D01*
X180975Y358775D02*
X229625Y358775D01*
D36*
X187325Y384038D02*
X187325Y393100D01*
X187325Y384038D02*
X177825Y369775D01*
D33*
X187325Y409575D03*
D36*
X187325Y393100D01*
D33*
X190500Y252413D03*
D34*
X193675Y249238D01*
X207963Y249238D01*
X225425Y231775D01*
X225425Y163513D01*
X222250Y160338D01*
D33*
X222250Y160338D03*
D36*
X200025Y374563D02*
X200025Y393100D01*
X200025Y374563D02*
X196825Y369775D01*
D33*
X200025Y409575D03*
D36*
X200025Y393100D01*
D33*
X201613Y255588D03*
D34*
X207963Y255588D01*
X230188Y233363D01*
X230188Y161925D01*
X228600Y153988D01*
D33*
X228600Y153988D03*
D35*
X232800Y341875D02*
X233363Y341875D01*
X232800Y341875D02*
X231775Y342900D01*
X223838Y343513D01*
X212725Y348275D01*
D37*
X152138Y157463D02*
X136500Y157463D01*
X152138Y157463D02*
X152400Y157725D01*
X98425Y156600D02*
X77788Y156600D01*
X117500Y157463D02*
X117500Y170863D01*
X115325Y173038D01*
X117500Y156600D02*
X98425Y156600D01*
X117500Y156600D02*
X117500Y157463D01*
D33*
X187325Y319088D03*
X187325Y266700D03*
D34*
X209550Y266700D01*
X222813Y253438D01*
X233363Y253438D01*
X183138Y323275D02*
X173101Y323275D01*
X183138Y323275D02*
X187325Y319088D01*
X242888Y268288D02*
X242888Y143900D01*
X236688Y137700D02*
X236688Y130738D01*
X236688Y137700D02*
X242888Y143900D01*
X233363Y270438D02*
X233363Y283600D01*
X240738Y270438D02*
X242888Y268288D01*
X240738Y270438D02*
X233363Y270438D01*
D36*
X223688Y130738D02*
X223688Y113738D01*
D34*
X223688Y108663D01*
X231775Y100575D01*
X241300Y74050D02*
X241300Y50800D01*
X241300Y74050D02*
X231775Y83575D01*
X241300Y50800D02*
X234950Y44450D01*
X185738Y44450D01*
X174300Y33013D01*
X174625Y22225D01*
X176213Y258763D02*
X192088Y258763D01*
X195263Y261938D01*
X207963Y261938D01*
X236538Y233363D01*
X176213Y258763D02*
X173101Y261874D01*
X173101Y267275D01*
X236538Y233363D02*
X236538Y158750D01*
D33*
X236538Y158750D03*
X233363Y52388D03*
D34*
X230188Y49213D01*
X165100Y49213D01*
X152238Y36350D01*
X149225Y22225D01*
X150175Y252349D02*
X150175Y259400D01*
X142875Y266700D01*
X142875Y276225D01*
X152400Y285750D01*
X152400Y314325D01*
X153988Y315913D01*
D33*
X153988Y315913D03*
M02*
