G04 EAGLE Gerber RS-274X export*
G75*
%MOMM*%
%FSLAX34Y34*%
%LPD*%
%INSilkscreen Top*%
%IPPOS*%
%AMOC8*
5,1,8,0,0,1.08239X$1,22.5*%
G01*
%ADD10C,0.101600*%
%ADD11C,0.152400*%
%ADD12C,0.076200*%
%ADD13C,0.063400*%
%ADD14C,0.250000*%
%ADD15C,0.127000*%
%ADD16R,0.635000X3.810000*%
%ADD17C,0.203200*%
%ADD18C,0.359200*%
%ADD19C,0.300000*%

G36*
X106377Y126265D02*
X106377Y126265D01*
X106443Y126267D01*
X106487Y126285D01*
X106533Y126293D01*
X106590Y126326D01*
X106651Y126351D01*
X106686Y126383D01*
X106727Y126407D01*
X106768Y126458D01*
X106817Y126503D01*
X106838Y126545D01*
X106868Y126581D01*
X106889Y126644D01*
X106919Y126702D01*
X106927Y126757D01*
X106940Y126794D01*
X106939Y126833D01*
X106947Y126888D01*
X106947Y132888D01*
X106935Y132952D01*
X106933Y133018D01*
X106915Y133062D01*
X106907Y133108D01*
X106874Y133165D01*
X106849Y133226D01*
X106817Y133261D01*
X106793Y133302D01*
X106742Y133343D01*
X106697Y133392D01*
X106655Y133413D01*
X106619Y133443D01*
X106557Y133464D01*
X106498Y133494D01*
X106443Y133502D01*
X106406Y133515D01*
X106367Y133514D01*
X106313Y133522D01*
X68313Y133522D01*
X68248Y133510D01*
X68182Y133508D01*
X68138Y133490D01*
X68092Y133482D01*
X68035Y133449D01*
X67974Y133424D01*
X67939Y133392D01*
X67898Y133368D01*
X67857Y133317D01*
X67808Y133272D01*
X67787Y133230D01*
X67757Y133194D01*
X67736Y133132D01*
X67706Y133073D01*
X67698Y133018D01*
X67685Y132981D01*
X67686Y132942D01*
X67678Y132888D01*
X67678Y126888D01*
X67690Y126823D01*
X67692Y126757D01*
X67710Y126713D01*
X67718Y126667D01*
X67751Y126610D01*
X67776Y126549D01*
X67808Y126514D01*
X67832Y126473D01*
X67883Y126432D01*
X67928Y126383D01*
X67970Y126362D01*
X68006Y126332D01*
X68069Y126311D01*
X68127Y126281D01*
X68182Y126273D01*
X68219Y126260D01*
X68258Y126261D01*
X68313Y126253D01*
X106313Y126253D01*
X106377Y126265D01*
G37*
G36*
X99377Y141265D02*
X99377Y141265D01*
X99443Y141267D01*
X99487Y141285D01*
X99533Y141293D01*
X99590Y141326D01*
X99651Y141351D01*
X99686Y141383D01*
X99727Y141407D01*
X99768Y141458D01*
X99817Y141503D01*
X99838Y141545D01*
X99868Y141581D01*
X99889Y141644D01*
X99919Y141702D01*
X99927Y141757D01*
X99940Y141794D01*
X99939Y141833D01*
X99947Y141888D01*
X99947Y143888D01*
X99935Y143952D01*
X99933Y144018D01*
X99915Y144062D01*
X99907Y144108D01*
X99874Y144165D01*
X99849Y144226D01*
X99817Y144261D01*
X99793Y144302D01*
X99742Y144343D01*
X99697Y144392D01*
X99655Y144413D01*
X99619Y144443D01*
X99557Y144464D01*
X99498Y144494D01*
X99443Y144502D01*
X99406Y144515D01*
X99367Y144514D01*
X99313Y144522D01*
X75313Y144522D01*
X75248Y144510D01*
X75182Y144508D01*
X75138Y144490D01*
X75092Y144482D01*
X75035Y144449D01*
X74974Y144424D01*
X74939Y144392D01*
X74898Y144368D01*
X74857Y144317D01*
X74808Y144272D01*
X74787Y144230D01*
X74757Y144194D01*
X74736Y144132D01*
X74706Y144073D01*
X74698Y144018D01*
X74685Y143981D01*
X74686Y143942D01*
X74678Y143888D01*
X74678Y141888D01*
X74690Y141823D01*
X74692Y141757D01*
X74710Y141713D01*
X74718Y141667D01*
X74751Y141610D01*
X74776Y141549D01*
X74808Y141514D01*
X74832Y141473D01*
X74883Y141432D01*
X74928Y141383D01*
X74970Y141362D01*
X75006Y141332D01*
X75069Y141311D01*
X75127Y141281D01*
X75182Y141273D01*
X75219Y141260D01*
X75258Y141261D01*
X75313Y141253D01*
X99313Y141253D01*
X99377Y141265D01*
G37*
G36*
X99377Y87265D02*
X99377Y87265D01*
X99443Y87267D01*
X99487Y87285D01*
X99533Y87293D01*
X99590Y87326D01*
X99651Y87351D01*
X99686Y87383D01*
X99727Y87407D01*
X99768Y87458D01*
X99817Y87503D01*
X99838Y87545D01*
X99868Y87581D01*
X99889Y87644D01*
X99919Y87702D01*
X99927Y87757D01*
X99940Y87794D01*
X99939Y87833D01*
X99947Y87888D01*
X99947Y89888D01*
X99935Y89952D01*
X99933Y90018D01*
X99915Y90062D01*
X99907Y90108D01*
X99874Y90165D01*
X99849Y90226D01*
X99817Y90261D01*
X99793Y90302D01*
X99742Y90343D01*
X99697Y90392D01*
X99655Y90413D01*
X99619Y90443D01*
X99557Y90464D01*
X99498Y90494D01*
X99443Y90502D01*
X99406Y90515D01*
X99367Y90514D01*
X99313Y90522D01*
X75313Y90522D01*
X75248Y90510D01*
X75182Y90508D01*
X75138Y90490D01*
X75092Y90482D01*
X75035Y90449D01*
X74974Y90424D01*
X74939Y90392D01*
X74898Y90368D01*
X74857Y90317D01*
X74808Y90272D01*
X74787Y90230D01*
X74757Y90194D01*
X74736Y90132D01*
X74706Y90073D01*
X74698Y90018D01*
X74685Y89981D01*
X74686Y89942D01*
X74678Y89888D01*
X74678Y87888D01*
X74690Y87823D01*
X74692Y87757D01*
X74710Y87713D01*
X74718Y87667D01*
X74751Y87610D01*
X74776Y87549D01*
X74808Y87514D01*
X74832Y87473D01*
X74883Y87432D01*
X74928Y87383D01*
X74970Y87362D01*
X75006Y87332D01*
X75069Y87311D01*
X75127Y87281D01*
X75182Y87273D01*
X75219Y87260D01*
X75258Y87261D01*
X75313Y87253D01*
X99313Y87253D01*
X99377Y87265D01*
G37*
D10*
X-5135Y396015D02*
X-7084Y397964D01*
X-10982Y397964D01*
X-12930Y396015D01*
X-12930Y388219D01*
X-10982Y386271D01*
X-7084Y386271D01*
X-5135Y388219D01*
X-1237Y394066D02*
X2661Y397964D01*
X2661Y386271D01*
X-1237Y386271D02*
X6559Y386271D01*
X10457Y388219D02*
X10457Y396015D01*
X12406Y397964D01*
X16304Y397964D01*
X18253Y396015D01*
X18253Y388219D01*
X16304Y386271D01*
X12406Y386271D01*
X10457Y388219D01*
X18253Y396015D01*
X22151Y397964D02*
X29947Y397964D01*
X29947Y396015D01*
X22151Y388219D01*
X22151Y386271D01*
X165598Y360211D02*
X167547Y362160D01*
X165598Y360211D02*
X165598Y356313D01*
X167547Y354364D01*
X175343Y354364D01*
X177292Y356313D01*
X177292Y360211D01*
X175343Y362160D01*
X169496Y366058D02*
X165598Y369955D01*
X177292Y369955D01*
X177292Y366058D02*
X177292Y373853D01*
X167547Y381649D02*
X165598Y385547D01*
X167547Y381649D02*
X171445Y377751D01*
X175343Y377751D01*
X177292Y379700D01*
X177292Y383598D01*
X175343Y385547D01*
X173394Y385547D01*
X171445Y383598D01*
X171445Y377751D01*
X92935Y454235D02*
X90986Y452286D01*
X90986Y448388D01*
X92935Y446439D01*
X100731Y446439D01*
X102680Y448388D01*
X102680Y452286D01*
X100731Y454235D01*
X102680Y458133D02*
X102680Y465928D01*
X102680Y458133D02*
X94884Y465928D01*
X92935Y465928D01*
X90986Y463979D01*
X90986Y460081D01*
X92935Y458133D01*
X90986Y469826D02*
X90986Y477622D01*
X90986Y469826D02*
X96833Y469826D01*
X94884Y473724D01*
X94884Y475673D01*
X96833Y477622D01*
X100731Y477622D01*
X102680Y475673D01*
X102680Y471775D01*
X100731Y469826D01*
X52236Y336052D02*
X54185Y334103D01*
X52236Y336052D02*
X48338Y336052D01*
X46389Y334103D01*
X46389Y326307D01*
X48338Y324358D01*
X52236Y324358D01*
X54185Y326307D01*
X61980Y334103D02*
X65878Y336052D01*
X61980Y334103D02*
X58083Y330205D01*
X58083Y326307D01*
X60031Y324358D01*
X63929Y324358D01*
X65878Y326307D01*
X65878Y328256D01*
X63929Y330205D01*
X58083Y330205D01*
X69776Y336052D02*
X77572Y336052D01*
X69776Y336052D02*
X69776Y330205D01*
X73674Y332154D01*
X75623Y332154D01*
X77572Y330205D01*
X77572Y326307D01*
X75623Y324358D01*
X71725Y324358D01*
X69776Y326307D01*
X132261Y471336D02*
X134210Y473285D01*
X132261Y471336D02*
X132261Y467438D01*
X134210Y465489D01*
X142006Y465489D01*
X143955Y467438D01*
X143955Y471336D01*
X142006Y473285D01*
X134210Y481080D02*
X132261Y484978D01*
X134210Y481080D02*
X138108Y477183D01*
X142006Y477183D01*
X143955Y479131D01*
X143955Y483029D01*
X142006Y484978D01*
X140057Y484978D01*
X138108Y483029D01*
X138108Y477183D01*
X134210Y492774D02*
X132261Y496672D01*
X134210Y492774D02*
X138108Y488876D01*
X142006Y488876D01*
X143955Y490825D01*
X143955Y494723D01*
X142006Y496672D01*
X140057Y496672D01*
X138108Y494723D01*
X138108Y488876D01*
X67608Y180477D02*
X67608Y168783D01*
X73455Y168783D01*
X75404Y170732D01*
X75404Y178528D01*
X73455Y180477D01*
X67608Y180477D01*
X79302Y176579D02*
X83199Y180477D01*
X83199Y168783D01*
X79302Y168783D02*
X87097Y168783D01*
X-6580Y344996D02*
X-6580Y356689D01*
X-734Y356689D01*
X1216Y354740D01*
X1216Y350842D01*
X-734Y348893D01*
X-6580Y348893D01*
X-2683Y348893D02*
X1216Y344996D01*
X5114Y352791D02*
X9011Y356689D01*
X9011Y344996D01*
X5114Y344996D02*
X12909Y344996D01*
X16807Y346944D02*
X16807Y354740D01*
X18756Y356689D01*
X22654Y356689D01*
X24603Y354740D01*
X24603Y346944D01*
X22654Y344996D01*
X18756Y344996D01*
X16807Y346944D01*
X24603Y354740D01*
X28501Y344996D02*
X36297Y344996D01*
X36297Y352791D02*
X28501Y344996D01*
X36297Y352791D02*
X36297Y354740D01*
X34348Y356689D01*
X30450Y356689D01*
X28501Y354740D01*
X15645Y470408D02*
X15645Y482102D01*
X21492Y482102D01*
X23441Y480153D01*
X23441Y476255D01*
X21492Y474306D01*
X15645Y474306D01*
X19543Y474306D02*
X23441Y470408D01*
X27339Y478204D02*
X31236Y482102D01*
X31236Y470408D01*
X27339Y470408D02*
X35134Y470408D01*
X39032Y472357D02*
X39032Y480153D01*
X40981Y482102D01*
X44879Y482102D01*
X46828Y480153D01*
X46828Y472357D01*
X44879Y470408D01*
X40981Y470408D01*
X39032Y472357D01*
X46828Y480153D01*
X50726Y480153D02*
X52675Y482102D01*
X56573Y482102D01*
X58522Y480153D01*
X58522Y478204D01*
X56573Y476255D01*
X54624Y476255D01*
X56573Y476255D02*
X58522Y474306D01*
X58522Y472357D01*
X56573Y470408D01*
X52675Y470408D01*
X50726Y472357D01*
X50292Y390295D02*
X38598Y390295D01*
X38598Y396142D01*
X40547Y398091D01*
X44445Y398091D01*
X46394Y396142D01*
X46394Y390295D01*
X46394Y394193D02*
X50292Y398091D01*
X42496Y401989D02*
X38598Y405886D01*
X50292Y405886D01*
X50292Y401989D02*
X50292Y409784D01*
X48343Y413682D02*
X40547Y413682D01*
X38598Y415631D01*
X38598Y419529D01*
X40547Y421478D01*
X48343Y421478D01*
X50292Y419529D01*
X50292Y415631D01*
X48343Y413682D01*
X40547Y421478D01*
X38598Y431223D02*
X50292Y431223D01*
X44445Y425376D02*
X38598Y431223D01*
X44445Y433172D02*
X44445Y425376D01*
X38608Y361452D02*
X38608Y349758D01*
X38608Y361452D02*
X44455Y361452D01*
X46404Y359503D01*
X46404Y355605D01*
X44455Y353656D01*
X38608Y353656D01*
X42506Y353656D02*
X46404Y349758D01*
X50302Y357554D02*
X54200Y361452D01*
X54200Y349758D01*
X50302Y349758D02*
X58098Y349758D01*
X61996Y351707D02*
X61996Y359503D01*
X63945Y361452D01*
X67843Y361452D01*
X69792Y359503D01*
X69792Y351707D01*
X67843Y349758D01*
X63945Y349758D01*
X61996Y351707D01*
X69792Y359503D01*
X73690Y361452D02*
X81486Y361452D01*
X73690Y361452D02*
X73690Y355605D01*
X77588Y357554D01*
X79537Y357554D01*
X81486Y355605D01*
X81486Y351707D01*
X79537Y349758D01*
X75639Y349758D01*
X73690Y351707D01*
X69620Y449771D02*
X69620Y461464D01*
X75467Y461464D01*
X77416Y459515D01*
X77416Y455617D01*
X75467Y453668D01*
X69620Y453668D01*
X73518Y453668D02*
X77416Y449771D01*
X81314Y457566D02*
X85211Y461464D01*
X85211Y449771D01*
X81314Y449771D02*
X89109Y449771D01*
X93007Y451719D02*
X93007Y459515D01*
X94956Y461464D01*
X98854Y461464D01*
X100803Y459515D01*
X100803Y451719D01*
X98854Y449771D01*
X94956Y449771D01*
X93007Y451719D01*
X100803Y459515D01*
X104701Y461464D02*
X112497Y461464D01*
X112497Y459515D01*
X104701Y451719D01*
X104701Y449771D01*
X165598Y402995D02*
X177292Y402995D01*
X165598Y402995D02*
X165598Y408842D01*
X167547Y410791D01*
X171445Y410791D01*
X173394Y408842D01*
X173394Y402995D01*
X173394Y406893D02*
X177292Y410791D01*
X169496Y414689D02*
X165598Y418586D01*
X177292Y418586D01*
X177292Y414689D02*
X177292Y422484D01*
X175343Y426382D02*
X167547Y426382D01*
X165598Y428331D01*
X165598Y432229D01*
X167547Y434178D01*
X175343Y434178D01*
X177292Y432229D01*
X177292Y428331D01*
X175343Y426382D01*
X167547Y434178D01*
X167547Y438076D02*
X165598Y440025D01*
X165598Y443923D01*
X167547Y445872D01*
X169496Y445872D01*
X171445Y443923D01*
X173394Y445872D01*
X175343Y445872D01*
X177292Y443923D01*
X177292Y440025D01*
X175343Y438076D01*
X173394Y438076D01*
X171445Y440025D01*
X169496Y438076D01*
X167547Y438076D01*
X171445Y440025D02*
X171445Y443923D01*
X177292Y372832D02*
X165598Y372832D01*
X165598Y378679D01*
X167547Y380628D01*
X171445Y380628D01*
X173394Y378679D01*
X173394Y372832D01*
X173394Y376730D02*
X177292Y380628D01*
X169496Y384526D02*
X165598Y388424D01*
X177292Y388424D01*
X177292Y384526D02*
X177292Y392322D01*
X175343Y396220D02*
X167547Y396220D01*
X165598Y398169D01*
X165598Y402067D01*
X167547Y404016D01*
X175343Y404016D01*
X177292Y402067D01*
X177292Y398169D01*
X175343Y396220D01*
X167547Y404016D01*
X175343Y407914D02*
X177292Y409863D01*
X177292Y413761D01*
X175343Y415710D01*
X167547Y415710D01*
X165598Y413761D01*
X165598Y409863D01*
X167547Y407914D01*
X169496Y407914D01*
X171445Y409863D01*
X171445Y415710D01*
X43371Y475171D02*
X43371Y486864D01*
X49217Y486864D01*
X51166Y484915D01*
X51166Y481017D01*
X49217Y479068D01*
X43371Y479068D01*
X47268Y479068D02*
X51166Y475171D01*
X55064Y482966D02*
X58962Y486864D01*
X58962Y475171D01*
X55064Y475171D02*
X62860Y475171D01*
X66758Y482966D02*
X70656Y486864D01*
X70656Y475171D01*
X66758Y475171D02*
X74554Y475171D01*
X78452Y477119D02*
X78452Y484915D01*
X80401Y486864D01*
X84299Y486864D01*
X86248Y484915D01*
X86248Y477119D01*
X84299Y475171D01*
X80401Y475171D01*
X78452Y477119D01*
X86248Y484915D01*
X351Y228102D02*
X351Y216408D01*
X351Y228102D02*
X6198Y228102D01*
X8147Y226153D01*
X8147Y222255D01*
X6198Y220306D01*
X351Y220306D01*
X4249Y220306D02*
X8147Y216408D01*
X12045Y228102D02*
X19841Y228102D01*
X19841Y226153D01*
X12045Y218357D01*
X12045Y216408D01*
X23739Y224204D02*
X27637Y228102D01*
X27637Y216408D01*
X23739Y216408D02*
X31535Y216408D01*
X22733Y221171D02*
X22733Y232864D01*
X28580Y232864D01*
X30529Y230915D01*
X30529Y227017D01*
X28580Y225068D01*
X22733Y225068D01*
X26631Y225068D02*
X30529Y221171D01*
X34427Y232864D02*
X42223Y232864D01*
X42223Y230915D01*
X34427Y223119D01*
X34427Y221171D01*
X46121Y221171D02*
X53917Y221171D01*
X53917Y228966D02*
X46121Y221171D01*
X53917Y228966D02*
X53917Y230915D01*
X51968Y232864D01*
X48070Y232864D01*
X46121Y230915D01*
X30671Y212227D02*
X30671Y200533D01*
X30671Y212227D02*
X36517Y212227D01*
X38466Y210278D01*
X38466Y206380D01*
X36517Y204431D01*
X30671Y204431D01*
X34568Y204431D02*
X38466Y200533D01*
X42364Y212227D02*
X50160Y212227D01*
X50160Y210278D01*
X42364Y202482D01*
X42364Y200533D01*
X54058Y210278D02*
X56007Y212227D01*
X59905Y212227D01*
X61854Y210278D01*
X61854Y208329D01*
X59905Y206380D01*
X57956Y206380D01*
X59905Y206380D02*
X61854Y204431D01*
X61854Y202482D01*
X59905Y200533D01*
X56007Y200533D01*
X54058Y202482D01*
X111476Y449771D02*
X111476Y461464D01*
X117323Y461464D01*
X119272Y459515D01*
X119272Y455617D01*
X117323Y453668D01*
X111476Y453668D01*
X115374Y453668D02*
X119272Y449771D01*
X123170Y461464D02*
X130966Y461464D01*
X130966Y459515D01*
X123170Y451719D01*
X123170Y449771D01*
X134864Y459515D02*
X136813Y461464D01*
X140711Y461464D01*
X142660Y459515D01*
X142660Y457566D01*
X140711Y455617D01*
X142660Y453668D01*
X142660Y451719D01*
X140711Y449771D01*
X136813Y449771D01*
X134864Y451719D01*
X134864Y453668D01*
X136813Y455617D01*
X134864Y457566D01*
X134864Y459515D01*
X136813Y455617D02*
X140711Y455617D01*
X164011Y473426D02*
X175705Y473426D01*
X164011Y473426D02*
X164011Y479273D01*
X165960Y481222D01*
X169858Y481222D01*
X171807Y479273D01*
X171807Y473426D01*
X171807Y477324D02*
X175705Y481222D01*
X164011Y485120D02*
X164011Y492916D01*
X165960Y492916D01*
X173756Y485120D01*
X175705Y485120D01*
X173756Y496814D02*
X175705Y498763D01*
X175705Y502661D01*
X173756Y504610D01*
X165960Y504610D01*
X164011Y502661D01*
X164011Y498763D01*
X165960Y496814D01*
X167909Y496814D01*
X169858Y498763D01*
X169858Y504610D01*
X235448Y435326D02*
X247142Y435326D01*
X235448Y435326D02*
X235448Y441173D01*
X237397Y443122D01*
X241295Y443122D01*
X243244Y441173D01*
X243244Y435326D01*
X243244Y439224D02*
X247142Y443122D01*
X237397Y447020D02*
X235448Y448969D01*
X235448Y452867D01*
X237397Y454816D01*
X239346Y454816D01*
X241295Y452867D01*
X243244Y454816D01*
X245193Y454816D01*
X247142Y452867D01*
X247142Y448969D01*
X245193Y447020D01*
X243244Y447020D01*
X241295Y448969D01*
X239346Y447020D01*
X237397Y447020D01*
X241295Y448969D02*
X241295Y452867D01*
X245193Y458714D02*
X237397Y458714D01*
X235448Y460663D01*
X235448Y464561D01*
X237397Y466510D01*
X245193Y466510D01*
X247142Y464561D01*
X247142Y460663D01*
X245193Y458714D01*
X237397Y466510D01*
D11*
X130300Y441450D02*
X130300Y371350D01*
X60200Y371350D01*
X60200Y437900D01*
X63750Y441450D02*
X130300Y441450D01*
X63750Y441450D02*
X60200Y437900D01*
X64226Y433832D02*
X64228Y433951D01*
X64234Y434071D01*
X64244Y434190D01*
X64258Y434308D01*
X64276Y434426D01*
X64297Y434544D01*
X64323Y434660D01*
X64352Y434776D01*
X64386Y434891D01*
X64423Y435004D01*
X64464Y435116D01*
X64508Y435227D01*
X64556Y435337D01*
X64608Y435444D01*
X64663Y435550D01*
X64722Y435654D01*
X64785Y435756D01*
X64850Y435855D01*
X64919Y435953D01*
X64991Y436048D01*
X65066Y436141D01*
X65145Y436231D01*
X65226Y436319D01*
X65310Y436403D01*
X65397Y436485D01*
X65486Y436564D01*
X65578Y436640D01*
X65673Y436713D01*
X65770Y436783D01*
X65869Y436849D01*
X65971Y436912D01*
X66074Y436972D01*
X66179Y437028D01*
X66286Y437081D01*
X66395Y437130D01*
X66506Y437176D01*
X66618Y437217D01*
X66731Y437255D01*
X66845Y437290D01*
X66961Y437320D01*
X67077Y437347D01*
X67194Y437369D01*
X67312Y437388D01*
X67431Y437403D01*
X67550Y437414D01*
X67669Y437421D01*
X67788Y437424D01*
X67908Y437423D01*
X68027Y437418D01*
X68146Y437409D01*
X68265Y437396D01*
X68383Y437379D01*
X68500Y437359D01*
X68617Y437334D01*
X68733Y437305D01*
X68848Y437273D01*
X68962Y437237D01*
X69075Y437197D01*
X69186Y437153D01*
X69295Y437106D01*
X69403Y437055D01*
X69510Y437001D01*
X69614Y436943D01*
X69716Y436881D01*
X69817Y436817D01*
X69915Y436748D01*
X70011Y436677D01*
X70104Y436603D01*
X70195Y436525D01*
X70283Y436445D01*
X70368Y436361D01*
X70451Y436275D01*
X70531Y436186D01*
X70608Y436095D01*
X70681Y436001D01*
X70752Y435904D01*
X70819Y435806D01*
X70883Y435705D01*
X70944Y435602D01*
X71001Y435497D01*
X71054Y435391D01*
X71104Y435282D01*
X71151Y435172D01*
X71193Y435061D01*
X71232Y434948D01*
X71268Y434834D01*
X71299Y434718D01*
X71326Y434602D01*
X71350Y434485D01*
X71370Y434367D01*
X71386Y434249D01*
X71398Y434130D01*
X71406Y434011D01*
X71410Y433892D01*
X71410Y433772D01*
X71406Y433653D01*
X71398Y433534D01*
X71386Y433415D01*
X71370Y433297D01*
X71350Y433179D01*
X71326Y433062D01*
X71299Y432946D01*
X71268Y432830D01*
X71232Y432716D01*
X71193Y432603D01*
X71151Y432492D01*
X71104Y432382D01*
X71054Y432273D01*
X71001Y432167D01*
X70944Y432062D01*
X70883Y431959D01*
X70819Y431858D01*
X70752Y431760D01*
X70681Y431663D01*
X70608Y431569D01*
X70531Y431478D01*
X70451Y431389D01*
X70368Y431303D01*
X70283Y431219D01*
X70195Y431139D01*
X70104Y431061D01*
X70011Y430987D01*
X69915Y430916D01*
X69817Y430847D01*
X69716Y430783D01*
X69614Y430721D01*
X69510Y430663D01*
X69403Y430609D01*
X69295Y430558D01*
X69186Y430511D01*
X69075Y430467D01*
X68962Y430427D01*
X68848Y430391D01*
X68733Y430359D01*
X68617Y430330D01*
X68500Y430305D01*
X68383Y430285D01*
X68265Y430268D01*
X68146Y430255D01*
X68027Y430246D01*
X67908Y430241D01*
X67788Y430240D01*
X67669Y430243D01*
X67550Y430250D01*
X67431Y430261D01*
X67312Y430276D01*
X67194Y430295D01*
X67077Y430317D01*
X66961Y430344D01*
X66845Y430374D01*
X66731Y430409D01*
X66618Y430447D01*
X66506Y430488D01*
X66395Y430534D01*
X66286Y430583D01*
X66179Y430636D01*
X66074Y430692D01*
X65971Y430752D01*
X65869Y430815D01*
X65770Y430881D01*
X65673Y430951D01*
X65578Y431024D01*
X65486Y431100D01*
X65397Y431179D01*
X65310Y431261D01*
X65226Y431345D01*
X65145Y431433D01*
X65066Y431523D01*
X64991Y431616D01*
X64919Y431711D01*
X64850Y431809D01*
X64785Y431908D01*
X64722Y432010D01*
X64663Y432114D01*
X64608Y432220D01*
X64556Y432327D01*
X64508Y432437D01*
X64464Y432548D01*
X64423Y432660D01*
X64386Y432773D01*
X64352Y432888D01*
X64323Y433004D01*
X64297Y433120D01*
X64276Y433238D01*
X64258Y433356D01*
X64244Y433474D01*
X64234Y433593D01*
X64228Y433713D01*
X64226Y433832D01*
D12*
X67945Y457581D02*
X70402Y457581D01*
X69174Y457581D02*
X69174Y464953D01*
X70402Y464953D02*
X67945Y464953D01*
X76621Y464953D02*
X77849Y463725D01*
X76621Y464953D02*
X74163Y464953D01*
X72934Y463725D01*
X72934Y458810D01*
X74163Y457581D01*
X76621Y457581D01*
X77849Y458810D01*
X80419Y458810D02*
X81647Y457581D01*
X84105Y457581D01*
X85333Y458810D01*
X85333Y463725D01*
X84105Y464953D01*
X81647Y464953D01*
X80419Y463725D01*
X80419Y462496D01*
X81647Y461267D01*
X85333Y461267D01*
D10*
X28580Y307477D02*
X30529Y305528D01*
X28580Y307477D02*
X24682Y307477D01*
X22733Y305528D01*
X22733Y297732D01*
X24682Y295783D01*
X28580Y295783D01*
X30529Y297732D01*
X34427Y295783D02*
X42223Y295783D01*
X34427Y295783D02*
X42223Y303579D01*
X42223Y305528D01*
X40274Y307477D01*
X36376Y307477D01*
X34427Y305528D01*
X30529Y330928D02*
X28580Y332877D01*
X24682Y332877D01*
X22733Y330928D01*
X22733Y323132D01*
X24682Y321183D01*
X28580Y321183D01*
X30529Y323132D01*
X34427Y330928D02*
X36376Y332877D01*
X40274Y332877D01*
X42223Y330928D01*
X42223Y328979D01*
X40274Y327030D01*
X38325Y327030D01*
X40274Y327030D02*
X42223Y325081D01*
X42223Y323132D01*
X40274Y321183D01*
X36376Y321183D01*
X34427Y323132D01*
X100872Y227379D02*
X98923Y225430D01*
X98923Y221532D01*
X100872Y219583D01*
X108668Y219583D01*
X110617Y221532D01*
X110617Y225430D01*
X108668Y227379D01*
X110617Y231277D02*
X110617Y239073D01*
X110617Y231277D02*
X102821Y239073D01*
X100872Y239073D01*
X98923Y237124D01*
X98923Y233226D01*
X100872Y231277D01*
X100872Y246869D02*
X98923Y250767D01*
X100872Y246869D02*
X104770Y242971D01*
X108668Y242971D01*
X110617Y244920D01*
X110617Y248818D01*
X108668Y250767D01*
X106719Y250767D01*
X104770Y248818D01*
X104770Y242971D01*
X240211Y335314D02*
X251905Y335314D01*
X240211Y335314D02*
X240211Y341161D01*
X242160Y343110D01*
X246058Y343110D01*
X248007Y341161D01*
X248007Y335314D01*
X248007Y339212D02*
X251905Y343110D01*
X244109Y347008D02*
X240211Y350905D01*
X251905Y350905D01*
X251905Y347008D02*
X251905Y354803D01*
X244109Y358701D02*
X240211Y362599D01*
X251905Y362599D01*
X251905Y358701D02*
X251905Y366497D01*
X21146Y391033D02*
X21146Y402727D01*
X26992Y402727D01*
X28941Y400778D01*
X28941Y396880D01*
X26992Y394931D01*
X21146Y394931D01*
X25043Y394931D02*
X28941Y391033D01*
X32839Y391033D02*
X40635Y391033D01*
X32839Y391033D02*
X40635Y398829D01*
X40635Y400778D01*
X38686Y402727D01*
X34788Y402727D01*
X32839Y400778D01*
X44533Y392982D02*
X46482Y391033D01*
X50380Y391033D01*
X52329Y392982D01*
X52329Y400778D01*
X50380Y402727D01*
X46482Y402727D01*
X44533Y400778D01*
X44533Y398829D01*
X46482Y396880D01*
X52329Y396880D01*
X73030Y247152D02*
X74979Y245203D01*
X73030Y247152D02*
X69132Y247152D01*
X67183Y245203D01*
X67183Y237407D01*
X69132Y235458D01*
X73030Y235458D01*
X74979Y237407D01*
X78877Y245203D02*
X80826Y247152D01*
X84724Y247152D01*
X86673Y245203D01*
X86673Y243254D01*
X84724Y241305D01*
X86673Y239356D01*
X86673Y237407D01*
X84724Y235458D01*
X80826Y235458D01*
X78877Y237407D01*
X78877Y239356D01*
X80826Y241305D01*
X78877Y243254D01*
X78877Y245203D01*
X80826Y241305D02*
X84724Y241305D01*
X90571Y235458D02*
X98367Y235458D01*
X90571Y235458D02*
X98367Y243254D01*
X98367Y245203D01*
X96418Y247152D01*
X92520Y247152D01*
X90571Y245203D01*
X74979Y265840D02*
X73030Y267789D01*
X69132Y267789D01*
X67183Y265840D01*
X67183Y258044D01*
X69132Y256096D01*
X73030Y256096D01*
X74979Y258044D01*
X84724Y256096D02*
X84724Y267789D01*
X78877Y261942D01*
X86673Y261942D01*
X90571Y267789D02*
X98367Y267789D01*
X90571Y267789D02*
X90571Y261942D01*
X94469Y263891D01*
X96418Y263891D01*
X98367Y261942D01*
X98367Y258044D01*
X96418Y256096D01*
X92520Y256096D01*
X90571Y258044D01*
D11*
X39942Y276162D02*
X31814Y276162D01*
X39942Y276162D02*
X39942Y270574D01*
X39942Y247714D02*
X31814Y247714D01*
X39942Y247714D02*
X39942Y253302D01*
D10*
X52886Y246414D02*
X64580Y246414D01*
X64580Y252261D01*
X62631Y254210D01*
X54835Y254210D01*
X52886Y252261D01*
X52886Y246414D01*
X56784Y258108D02*
X52886Y262005D01*
X64580Y262005D01*
X64580Y258108D02*
X64580Y265903D01*
X52886Y269801D02*
X52886Y277597D01*
X52886Y269801D02*
X58733Y269801D01*
X56784Y273699D01*
X56784Y275648D01*
X58733Y277597D01*
X62631Y277597D01*
X64580Y275648D01*
X64580Y271750D01*
X62631Y269801D01*
X202121Y194764D02*
X202121Y183071D01*
X202121Y194764D02*
X207967Y194764D01*
X209916Y192815D01*
X209916Y188917D01*
X207967Y186968D01*
X202121Y186968D01*
X206018Y186968D02*
X209916Y183071D01*
X213814Y192815D02*
X215763Y194764D01*
X219661Y194764D01*
X221610Y192815D01*
X221610Y190866D01*
X219661Y188917D01*
X217712Y188917D01*
X219661Y188917D02*
X221610Y186968D01*
X221610Y185019D01*
X219661Y183071D01*
X215763Y183071D01*
X213814Y185019D01*
X225508Y185019D02*
X227457Y183071D01*
X231355Y183071D01*
X233304Y185019D01*
X233304Y192815D01*
X231355Y194764D01*
X227457Y194764D01*
X225508Y192815D01*
X225508Y190866D01*
X227457Y188917D01*
X233304Y188917D01*
X179739Y313246D02*
X179739Y324939D01*
X185586Y324939D01*
X187535Y322990D01*
X187535Y319092D01*
X185586Y317143D01*
X179739Y317143D01*
X183637Y317143D02*
X187535Y313246D01*
X191433Y324939D02*
X199228Y324939D01*
X191433Y324939D02*
X191433Y319092D01*
X195330Y321041D01*
X197279Y321041D01*
X199228Y319092D01*
X199228Y315194D01*
X197279Y313246D01*
X193381Y313246D01*
X191433Y315194D01*
X203126Y322990D02*
X205075Y324939D01*
X208973Y324939D01*
X210922Y322990D01*
X210922Y321041D01*
X208973Y319092D01*
X207024Y319092D01*
X208973Y319092D02*
X210922Y317143D01*
X210922Y315194D01*
X208973Y313246D01*
X205075Y313246D01*
X203126Y315194D01*
D13*
X208125Y278063D02*
X206375Y276313D01*
X204875Y277813D01*
X206625Y279563D01*
X208125Y278063D01*
D14*
X209125Y273813D03*
D10*
X175107Y267314D02*
X175107Y255621D01*
X182903Y255621D01*
X186801Y267314D02*
X194597Y267314D01*
X186801Y267314D02*
X186801Y255621D01*
X194597Y255621D01*
X190699Y261467D02*
X186801Y261467D01*
X198495Y255621D02*
X198495Y267314D01*
X198495Y255621D02*
X204342Y255621D01*
X206291Y257569D01*
X206291Y265365D01*
X204342Y267314D01*
X198495Y267314D01*
X210189Y255621D02*
X217985Y255621D01*
X217985Y263416D02*
X210189Y255621D01*
X217985Y263416D02*
X217985Y265365D01*
X216036Y267314D01*
X212138Y267314D01*
X210189Y265365D01*
X179739Y292608D02*
X179739Y304302D01*
X185586Y304302D01*
X187535Y302353D01*
X187535Y298455D01*
X185586Y296506D01*
X179739Y296506D01*
X183637Y296506D02*
X187535Y292608D01*
X191433Y304302D02*
X199228Y304302D01*
X191433Y304302D02*
X191433Y298455D01*
X195330Y300404D01*
X197279Y300404D01*
X199228Y298455D01*
X199228Y294557D01*
X197279Y292608D01*
X193381Y292608D01*
X191433Y294557D01*
X208973Y292608D02*
X208973Y304302D01*
X203126Y298455D01*
X210922Y298455D01*
D13*
X208125Y293938D02*
X206375Y292188D01*
X204875Y293688D01*
X206625Y295438D01*
X208125Y293938D01*
D14*
X209125Y289688D03*
D10*
X175107Y283189D02*
X175107Y271496D01*
X182903Y271496D01*
X186801Y283189D02*
X194597Y283189D01*
X186801Y283189D02*
X186801Y271496D01*
X194597Y271496D01*
X190699Y277342D02*
X186801Y277342D01*
X198495Y271496D02*
X198495Y283189D01*
X198495Y271496D02*
X204342Y271496D01*
X206291Y273444D01*
X206291Y281240D01*
X204342Y283189D01*
X198495Y283189D01*
X210189Y281240D02*
X212138Y283189D01*
X216036Y283189D01*
X217985Y281240D01*
X217985Y279291D01*
X216036Y277342D01*
X214087Y277342D01*
X216036Y277342D02*
X217985Y275393D01*
X217985Y273444D01*
X216036Y271496D01*
X212138Y271496D01*
X210189Y273444D01*
X136017Y71789D02*
X124323Y71789D01*
X124323Y77636D01*
X126272Y79585D01*
X130170Y79585D01*
X132119Y77636D01*
X132119Y71789D01*
X132119Y75687D02*
X136017Y79585D01*
X126272Y87380D02*
X124323Y91278D01*
X126272Y87380D02*
X130170Y83483D01*
X134068Y83483D01*
X136017Y85431D01*
X136017Y89329D01*
X134068Y91278D01*
X132119Y91278D01*
X130170Y89329D01*
X130170Y83483D01*
X126272Y95176D02*
X124323Y97125D01*
X124323Y101023D01*
X126272Y102972D01*
X128221Y102972D01*
X130170Y101023D01*
X132119Y102972D01*
X134068Y102972D01*
X136017Y101023D01*
X136017Y97125D01*
X134068Y95176D01*
X132119Y95176D01*
X130170Y97125D01*
X128221Y95176D01*
X126272Y95176D01*
X130170Y97125D02*
X130170Y101023D01*
D11*
X155575Y187325D02*
X149225Y193675D01*
X168275Y187325D02*
X174625Y193675D01*
X180975Y187325D01*
X193675Y187325D02*
X200025Y193675D01*
X149225Y193675D02*
X149225Y231775D01*
X155575Y238125D01*
X168275Y238125D01*
X174625Y231775D01*
X180975Y238125D01*
X193675Y238125D01*
X200025Y231775D01*
X174625Y231775D02*
X174625Y193675D01*
X200025Y193675D02*
X200025Y231775D01*
X193675Y187325D02*
X180975Y187325D01*
X168275Y187325D02*
X155575Y187325D01*
X200025Y193675D02*
X206375Y187325D01*
X219075Y187325D02*
X225425Y193675D01*
X200025Y231775D02*
X206375Y238125D01*
X219075Y238125D01*
X225425Y231775D01*
X225425Y193675D01*
X219075Y187325D02*
X206375Y187325D01*
D15*
X151767Y245110D02*
X149860Y247017D01*
X151767Y245110D02*
X153673Y245110D01*
X155580Y247017D01*
X155580Y256550D01*
X153673Y256550D02*
X157487Y256550D01*
X161554Y256550D02*
X161554Y245110D01*
X161554Y256550D02*
X167274Y256550D01*
X169180Y254643D01*
X169180Y250830D01*
X167274Y248923D01*
X161554Y248923D01*
X177061Y254643D02*
X180874Y256550D01*
X177061Y254643D02*
X173248Y250830D01*
X173248Y247017D01*
X175155Y245110D01*
X178968Y245110D01*
X180874Y247017D01*
X180874Y248923D01*
X178968Y250830D01*
X173248Y250830D01*
D10*
X121510Y227379D02*
X119561Y225430D01*
X119561Y221532D01*
X121510Y219583D01*
X129306Y219583D01*
X131255Y221532D01*
X131255Y225430D01*
X129306Y227379D01*
X123459Y231277D02*
X119561Y235175D01*
X131255Y235175D01*
X131255Y231277D02*
X131255Y239073D01*
X121510Y242971D02*
X119561Y244920D01*
X119561Y248818D01*
X121510Y250767D01*
X123459Y250767D01*
X125408Y248818D01*
X127357Y250767D01*
X129306Y250767D01*
X131255Y248818D01*
X131255Y244920D01*
X129306Y242971D01*
X127357Y242971D01*
X125408Y244920D01*
X123459Y242971D01*
X121510Y242971D01*
X125408Y244920D02*
X125408Y248818D01*
X144829Y372203D02*
X142880Y374152D01*
X138982Y374152D01*
X137033Y372203D01*
X137033Y364407D01*
X138982Y362458D01*
X142880Y362458D01*
X144829Y364407D01*
X148727Y362458D02*
X156523Y362458D01*
X148727Y362458D02*
X156523Y370254D01*
X156523Y372203D01*
X154574Y374152D01*
X150676Y374152D01*
X148727Y372203D01*
X160421Y362458D02*
X168217Y362458D01*
X160421Y362458D02*
X168217Y370254D01*
X168217Y372203D01*
X166268Y374152D01*
X162370Y374152D01*
X160421Y372203D01*
D11*
X165225Y260225D02*
X95125Y260225D01*
X95125Y330325D01*
X161675Y330325D01*
X165225Y326775D02*
X165225Y260225D01*
X165225Y326775D02*
X161675Y330325D01*
X154015Y322707D02*
X154017Y322826D01*
X154023Y322946D01*
X154033Y323065D01*
X154047Y323183D01*
X154065Y323301D01*
X154086Y323419D01*
X154112Y323535D01*
X154141Y323651D01*
X154175Y323766D01*
X154212Y323879D01*
X154253Y323991D01*
X154297Y324102D01*
X154345Y324212D01*
X154397Y324319D01*
X154452Y324425D01*
X154511Y324529D01*
X154574Y324631D01*
X154639Y324730D01*
X154708Y324828D01*
X154780Y324923D01*
X154855Y325016D01*
X154934Y325106D01*
X155015Y325194D01*
X155099Y325278D01*
X155186Y325360D01*
X155275Y325439D01*
X155367Y325515D01*
X155462Y325588D01*
X155559Y325658D01*
X155658Y325724D01*
X155760Y325787D01*
X155863Y325847D01*
X155968Y325903D01*
X156075Y325956D01*
X156184Y326005D01*
X156295Y326051D01*
X156407Y326092D01*
X156520Y326130D01*
X156634Y326165D01*
X156750Y326195D01*
X156866Y326222D01*
X156983Y326244D01*
X157101Y326263D01*
X157220Y326278D01*
X157339Y326289D01*
X157458Y326296D01*
X157577Y326299D01*
X157697Y326298D01*
X157816Y326293D01*
X157935Y326284D01*
X158054Y326271D01*
X158172Y326254D01*
X158289Y326234D01*
X158406Y326209D01*
X158522Y326180D01*
X158637Y326148D01*
X158751Y326112D01*
X158864Y326072D01*
X158975Y326028D01*
X159084Y325981D01*
X159192Y325930D01*
X159299Y325876D01*
X159403Y325818D01*
X159505Y325756D01*
X159606Y325692D01*
X159704Y325623D01*
X159800Y325552D01*
X159893Y325478D01*
X159984Y325400D01*
X160072Y325320D01*
X160157Y325236D01*
X160240Y325150D01*
X160320Y325061D01*
X160397Y324970D01*
X160470Y324876D01*
X160541Y324779D01*
X160608Y324681D01*
X160672Y324580D01*
X160733Y324477D01*
X160790Y324372D01*
X160843Y324266D01*
X160893Y324157D01*
X160940Y324047D01*
X160982Y323936D01*
X161021Y323823D01*
X161057Y323709D01*
X161088Y323593D01*
X161115Y323477D01*
X161139Y323360D01*
X161159Y323242D01*
X161175Y323124D01*
X161187Y323005D01*
X161195Y322886D01*
X161199Y322767D01*
X161199Y322647D01*
X161195Y322528D01*
X161187Y322409D01*
X161175Y322290D01*
X161159Y322172D01*
X161139Y322054D01*
X161115Y321937D01*
X161088Y321821D01*
X161057Y321705D01*
X161021Y321591D01*
X160982Y321478D01*
X160940Y321367D01*
X160893Y321257D01*
X160843Y321148D01*
X160790Y321042D01*
X160733Y320937D01*
X160672Y320834D01*
X160608Y320733D01*
X160541Y320635D01*
X160470Y320538D01*
X160397Y320444D01*
X160320Y320353D01*
X160240Y320264D01*
X160157Y320178D01*
X160072Y320094D01*
X159984Y320014D01*
X159893Y319936D01*
X159800Y319862D01*
X159704Y319791D01*
X159606Y319722D01*
X159505Y319658D01*
X159403Y319596D01*
X159299Y319538D01*
X159192Y319484D01*
X159084Y319433D01*
X158975Y319386D01*
X158864Y319342D01*
X158751Y319302D01*
X158637Y319266D01*
X158522Y319234D01*
X158406Y319205D01*
X158289Y319180D01*
X158172Y319160D01*
X158054Y319143D01*
X157935Y319130D01*
X157816Y319121D01*
X157697Y319116D01*
X157577Y319115D01*
X157458Y319118D01*
X157339Y319125D01*
X157220Y319136D01*
X157101Y319151D01*
X156983Y319170D01*
X156866Y319192D01*
X156750Y319219D01*
X156634Y319249D01*
X156520Y319284D01*
X156407Y319322D01*
X156295Y319363D01*
X156184Y319409D01*
X156075Y319458D01*
X155968Y319511D01*
X155863Y319567D01*
X155760Y319627D01*
X155658Y319690D01*
X155559Y319756D01*
X155462Y319826D01*
X155367Y319899D01*
X155275Y319975D01*
X155186Y320054D01*
X155099Y320136D01*
X155015Y320220D01*
X154934Y320308D01*
X154855Y320398D01*
X154780Y320491D01*
X154708Y320586D01*
X154639Y320684D01*
X154574Y320783D01*
X154511Y320885D01*
X154452Y320989D01*
X154397Y321095D01*
X154345Y321202D01*
X154297Y321312D01*
X154253Y321423D01*
X154212Y321535D01*
X154175Y321648D01*
X154141Y321763D01*
X154112Y321879D01*
X154086Y321995D01*
X154065Y322113D01*
X154047Y322231D01*
X154033Y322349D01*
X154023Y322468D01*
X154017Y322588D01*
X154015Y322707D01*
D12*
X181350Y300890D02*
X187493Y300890D01*
X188722Y302118D01*
X188722Y304576D01*
X187493Y305804D01*
X181350Y305804D01*
X187493Y308374D02*
X188722Y309602D01*
X188722Y312060D01*
X187493Y313289D01*
X186265Y313289D01*
X185036Y312060D01*
X185036Y309602D01*
X183807Y308374D01*
X182578Y308374D01*
X181350Y309602D01*
X181350Y312060D01*
X182578Y313289D01*
X180121Y310831D02*
X189951Y310831D01*
X188722Y315858D02*
X188722Y320773D01*
X188722Y315858D02*
X183807Y320773D01*
X182578Y320773D01*
X181350Y319544D01*
X181350Y317087D01*
X182578Y315858D01*
D10*
X232537Y395780D02*
X232537Y399678D01*
X232537Y397729D02*
X220843Y397729D01*
X220843Y395780D02*
X220843Y399678D01*
X220843Y409423D02*
X222792Y411372D01*
X220843Y409423D02*
X220843Y405525D01*
X222792Y403576D01*
X230588Y403576D01*
X232537Y405525D01*
X232537Y409423D01*
X230588Y411372D01*
X224741Y415270D02*
X220843Y419168D01*
X232537Y419168D01*
X232537Y415270D02*
X232537Y423066D01*
X230588Y426964D02*
X222792Y426964D01*
X220843Y428913D01*
X220843Y432811D01*
X222792Y434760D01*
X230588Y434760D01*
X232537Y432811D01*
X232537Y428913D01*
X230588Y426964D01*
X222792Y434760D01*
X221742Y427546D02*
X210048Y427546D01*
X210048Y433392D01*
X211997Y435341D01*
X215895Y435341D01*
X217844Y433392D01*
X217844Y427546D01*
X217844Y431443D02*
X221742Y435341D01*
X219793Y439239D02*
X221742Y441188D01*
X221742Y445086D01*
X219793Y447035D01*
X211997Y447035D01*
X210048Y445086D01*
X210048Y441188D01*
X211997Y439239D01*
X213946Y439239D01*
X215895Y441188D01*
X215895Y447035D01*
X213946Y450933D02*
X210048Y454831D01*
X221742Y454831D01*
X221742Y450933D02*
X221742Y458729D01*
X237397Y382797D02*
X235448Y380848D01*
X235448Y376950D01*
X237397Y375001D01*
X245193Y375001D01*
X247142Y376950D01*
X247142Y380848D01*
X245193Y382797D01*
X237397Y390593D02*
X235448Y394491D01*
X237397Y390593D02*
X241295Y386695D01*
X245193Y386695D01*
X247142Y388644D01*
X247142Y392542D01*
X245193Y394491D01*
X243244Y394491D01*
X241295Y392542D01*
X241295Y386695D01*
X245193Y398389D02*
X237397Y398389D01*
X235448Y400338D01*
X235448Y404236D01*
X237397Y406185D01*
X245193Y406185D01*
X247142Y404236D01*
X247142Y400338D01*
X245193Y398389D01*
X237397Y406185D01*
D11*
X201549Y360299D02*
X201549Y352171D01*
X195961Y352171D01*
X173101Y352171D02*
X173101Y360299D01*
X173101Y352171D02*
X178689Y352171D01*
D10*
X171801Y339227D02*
X171801Y327533D01*
X177648Y327533D01*
X179597Y329482D01*
X179597Y337278D01*
X177648Y339227D01*
X171801Y339227D01*
X183495Y335329D02*
X187393Y339227D01*
X187393Y327533D01*
X183495Y327533D02*
X191291Y327533D01*
X195189Y329482D02*
X195189Y337278D01*
X197138Y339227D01*
X201036Y339227D01*
X202985Y337278D01*
X202985Y329482D01*
X201036Y327533D01*
X197138Y327533D01*
X195189Y329482D01*
X202985Y337278D01*
X68267Y78877D02*
X70216Y76928D01*
X68267Y78877D02*
X64369Y78877D01*
X62421Y76928D01*
X62421Y69132D01*
X64369Y67183D01*
X68267Y67183D01*
X70216Y69132D01*
X74114Y74979D02*
X78012Y78877D01*
X78012Y67183D01*
X74114Y67183D02*
X81910Y67183D01*
D15*
X68313Y89888D02*
X106313Y89888D01*
X106313Y141888D01*
X68313Y141888D01*
X68313Y89888D01*
X79313Y115888D02*
X95313Y115888D01*
X87313Y126888D01*
X79313Y115888D01*
D10*
X57325Y174775D02*
X12525Y174775D01*
X12525Y136375D02*
X57325Y136375D01*
D16*
X44450Y155575D03*
D15*
X41275Y155575D02*
X28575Y168275D01*
X28575Y142875D01*
X41275Y155575D01*
D10*
X31095Y129677D02*
X31095Y117983D01*
X36942Y117983D01*
X38891Y119932D01*
X38891Y127728D01*
X36942Y129677D01*
X31095Y129677D01*
X48636Y129677D02*
X48636Y117983D01*
X42789Y123830D02*
X48636Y129677D01*
X50585Y123830D02*
X42789Y123830D01*
X240211Y316845D02*
X251905Y316845D01*
X240211Y316845D02*
X240211Y322692D01*
X242160Y324641D01*
X246058Y324641D01*
X248007Y322692D01*
X248007Y316845D01*
X248007Y320743D02*
X251905Y324641D01*
X244109Y328539D02*
X240211Y332437D01*
X251905Y332437D01*
X251905Y328539D02*
X251905Y336335D01*
D13*
X212975Y357025D02*
X211225Y358775D01*
X212725Y360275D01*
X214475Y358525D01*
X212975Y357025D01*
D14*
X208725Y356025D03*
D10*
X202217Y344283D02*
X190523Y344283D01*
X202217Y344283D02*
X202217Y352079D01*
X190523Y355977D02*
X190523Y363773D01*
X190523Y355977D02*
X202217Y355977D01*
X202217Y363773D01*
X196370Y359875D02*
X196370Y355977D01*
X190523Y367671D02*
X202217Y367671D01*
X202217Y373518D01*
X200268Y375467D01*
X192472Y375467D01*
X190523Y373518D01*
X190523Y367671D01*
X194421Y379365D02*
X190523Y383263D01*
X202217Y383263D01*
X202217Y379365D02*
X202217Y387161D01*
X94964Y48002D02*
X94964Y36308D01*
X94964Y48002D02*
X100811Y48002D01*
X102760Y46053D01*
X102760Y42155D01*
X100811Y40206D01*
X94964Y40206D01*
X98862Y40206D02*
X102760Y36308D01*
X106658Y36308D02*
X114453Y36308D01*
X106658Y36308D02*
X114453Y44104D01*
X114453Y46053D01*
X112504Y48002D01*
X108606Y48002D01*
X106658Y46053D01*
X118351Y46053D02*
X120300Y48002D01*
X124198Y48002D01*
X126147Y46053D01*
X126147Y44104D01*
X124198Y42155D01*
X122249Y42155D01*
X124198Y42155D02*
X126147Y40206D01*
X126147Y38257D01*
X124198Y36308D01*
X120300Y36308D01*
X118351Y38257D01*
D12*
X189574Y44077D02*
X191141Y42509D01*
X189574Y44077D02*
X186438Y44077D01*
X184871Y42509D01*
X184871Y36239D01*
X186438Y34671D01*
X189574Y34671D01*
X191141Y36239D01*
X198929Y34671D02*
X198929Y44077D01*
X194226Y39374D01*
X200497Y39374D01*
X59091Y102241D02*
X57523Y100674D01*
X57523Y97538D01*
X59091Y95971D01*
X65361Y95971D01*
X66929Y97538D01*
X66929Y100674D01*
X65361Y102241D01*
X59091Y108461D02*
X57523Y111597D01*
X59091Y108461D02*
X62226Y105326D01*
X65361Y105326D01*
X66929Y106893D01*
X66929Y110029D01*
X65361Y111597D01*
X63794Y111597D01*
X62226Y110029D01*
X62226Y105326D01*
D17*
X113000Y136963D02*
X113000Y151963D01*
X141000Y151963D02*
X141000Y136963D01*
D18*
X137160Y148273D03*
D10*
X111476Y124914D02*
X111476Y115169D01*
X113425Y113221D01*
X117323Y113221D01*
X119272Y115169D01*
X119272Y124914D01*
X123170Y115169D02*
X125119Y113221D01*
X129017Y113221D01*
X130966Y115169D01*
X130966Y117118D01*
X129017Y119067D01*
X125119Y119067D01*
X123170Y121016D01*
X123170Y122965D01*
X125119Y124914D01*
X129017Y124914D01*
X130966Y122965D01*
X127068Y126863D02*
X127068Y111272D01*
X134864Y124914D02*
X142660Y124914D01*
X134864Y124914D02*
X134864Y119067D01*
X138762Y121016D01*
X140711Y121016D01*
X142660Y119067D01*
X142660Y115169D01*
X140711Y113221D01*
X136813Y113221D01*
X134864Y115169D01*
X133848Y149230D02*
X135797Y151179D01*
X133848Y149230D02*
X133848Y145332D01*
X135797Y143383D01*
X143593Y143383D01*
X145542Y145332D01*
X145542Y149230D01*
X143593Y151179D01*
X145542Y160924D02*
X133848Y160924D01*
X139695Y155077D01*
X139695Y162873D01*
X135797Y170669D02*
X133848Y174567D01*
X135797Y170669D02*
X139695Y166771D01*
X143593Y166771D01*
X145542Y168720D01*
X145542Y172618D01*
X143593Y174567D01*
X141644Y174567D01*
X139695Y172618D01*
X139695Y166771D01*
X117983Y179896D02*
X117983Y191589D01*
X123830Y191589D01*
X125779Y189640D01*
X125779Y185742D01*
X123830Y183793D01*
X117983Y183793D01*
X121881Y183793D02*
X125779Y179896D01*
X129677Y191589D02*
X137473Y191589D01*
X129677Y191589D02*
X129677Y185742D01*
X133575Y187691D01*
X135524Y187691D01*
X137473Y185742D01*
X137473Y181844D01*
X135524Y179896D01*
X131626Y179896D01*
X129677Y181844D01*
X141371Y191589D02*
X149167Y191589D01*
X149167Y189640D01*
X141371Y181844D01*
X141371Y179896D01*
X91567Y159258D02*
X79873Y159258D01*
X79873Y165105D01*
X81822Y167054D01*
X85720Y167054D01*
X87669Y165105D01*
X87669Y159258D01*
X87669Y163156D02*
X91567Y167054D01*
X79873Y170952D02*
X79873Y178748D01*
X79873Y170952D02*
X85720Y170952D01*
X83771Y174850D01*
X83771Y176799D01*
X85720Y178748D01*
X89618Y178748D01*
X91567Y176799D01*
X91567Y172901D01*
X89618Y170952D01*
X81822Y182646D02*
X79873Y184595D01*
X79873Y188493D01*
X81822Y190442D01*
X83771Y190442D01*
X85720Y188493D01*
X87669Y190442D01*
X89618Y190442D01*
X91567Y188493D01*
X91567Y184595D01*
X89618Y182646D01*
X87669Y182646D01*
X85720Y184595D01*
X83771Y182646D01*
X81822Y182646D01*
X85720Y184595D02*
X85720Y188493D01*
X61185Y167054D02*
X59236Y165105D01*
X59236Y161207D01*
X61185Y159258D01*
X68981Y159258D01*
X70930Y161207D01*
X70930Y165105D01*
X68981Y167054D01*
X59236Y170952D02*
X59236Y178748D01*
X61185Y178748D01*
X68981Y170952D01*
X70930Y170952D01*
D15*
X212413Y139975D02*
X212413Y94975D01*
X212413Y139975D02*
X165413Y139975D01*
X165413Y94975D01*
X212413Y94975D01*
X141225Y98125D02*
X141225Y112125D01*
X141225Y120125D01*
X141225Y124125D01*
X157225Y124125D01*
X157225Y120125D01*
X157225Y112125D01*
X157225Y98125D01*
X141225Y98125D01*
X141225Y120125D02*
X149225Y120125D01*
X157225Y120125D01*
X149225Y120125D02*
X141225Y112125D01*
X157225Y112125D01*
X149225Y120125D01*
D17*
X241188Y117238D02*
X241188Y127238D01*
X219188Y127238D02*
X219188Y117238D01*
D19*
X236688Y124238D03*
D12*
X220757Y98959D02*
X217621Y98959D01*
X219189Y98959D02*
X219189Y108365D01*
X217621Y108365D02*
X220757Y108365D01*
X228561Y108365D02*
X230129Y106797D01*
X228561Y108365D02*
X225426Y108365D01*
X223858Y106797D01*
X223858Y100526D01*
X225426Y98959D01*
X228561Y98959D01*
X230129Y100526D01*
X233213Y106797D02*
X234781Y108365D01*
X237916Y108365D01*
X239484Y106797D01*
X239484Y105229D01*
X237916Y103662D01*
X236349Y103662D01*
X237916Y103662D02*
X239484Y102094D01*
X239484Y100526D01*
X237916Y98959D01*
X234781Y98959D01*
X233213Y100526D01*
D10*
X240211Y245408D02*
X251905Y245408D01*
X240211Y245408D02*
X240211Y251255D01*
X242160Y253204D01*
X246058Y253204D01*
X248007Y251255D01*
X248007Y245408D01*
X248007Y249306D02*
X251905Y253204D01*
X240211Y257102D02*
X240211Y264897D01*
X240211Y257102D02*
X246058Y257102D01*
X244109Y260999D01*
X244109Y262948D01*
X246058Y264897D01*
X249956Y264897D01*
X251905Y262948D01*
X251905Y259050D01*
X249956Y257102D01*
X240211Y281417D02*
X242160Y283366D01*
X240211Y281417D02*
X240211Y277519D01*
X242160Y275570D01*
X249956Y275570D01*
X251905Y277519D01*
X251905Y281417D01*
X249956Y283366D01*
X240211Y287264D02*
X240211Y295060D01*
X240211Y287264D02*
X246058Y287264D01*
X244109Y291162D01*
X244109Y293111D01*
X246058Y295060D01*
X249956Y295060D01*
X251905Y293111D01*
X251905Y289213D01*
X249956Y287264D01*
X250317Y75545D02*
X238623Y75545D01*
X238623Y81392D01*
X240572Y83341D01*
X244470Y83341D01*
X246419Y81392D01*
X246419Y75545D01*
X246419Y79443D02*
X250317Y83341D01*
X240572Y91137D02*
X238623Y95035D01*
X240572Y91137D02*
X244470Y87239D01*
X248368Y87239D01*
X250317Y89188D01*
X250317Y93086D01*
X248368Y95035D01*
X246419Y95035D01*
X244470Y93086D01*
X244470Y87239D01*
X159468Y492633D02*
X149723Y492633D01*
X159468Y492633D02*
X161417Y494582D01*
X161417Y498480D01*
X159468Y500429D01*
X149723Y500429D01*
X159468Y504327D02*
X161417Y506276D01*
X161417Y510174D01*
X159468Y512123D01*
X157519Y512123D01*
X155570Y510174D01*
X155570Y506276D01*
X153621Y504327D01*
X151672Y504327D01*
X149723Y506276D01*
X149723Y510174D01*
X151672Y512123D01*
X147774Y508225D02*
X163366Y508225D01*
X149723Y516021D02*
X149723Y523817D01*
X151672Y523817D01*
X159468Y516021D01*
X161417Y516021D01*
X88172Y503604D02*
X86223Y501655D01*
X86223Y497757D01*
X88172Y495808D01*
X95968Y495808D01*
X97917Y497757D01*
X97917Y501655D01*
X95968Y503604D01*
X88172Y507502D02*
X86223Y509451D01*
X86223Y513349D01*
X88172Y515298D01*
X90121Y515298D01*
X92070Y513349D01*
X94019Y515298D01*
X95968Y515298D01*
X97917Y513349D01*
X97917Y509451D01*
X95968Y507502D01*
X94019Y507502D01*
X92070Y509451D01*
X90121Y507502D01*
X88172Y507502D01*
X92070Y509451D02*
X92070Y513349D01*
M02*
