G04 EAGLE Gerber RS-274X export*
G75*
%MOMM*%
%FSLAX34Y34*%
%LPD*%
%INSilkscreen Bottom*%
%IPPOS*%
%AMOC8*
5,1,8,0,0,1.08239X$1,22.5*%
G01*
%ADD10C,0.101600*%


D10*
X218567Y316421D02*
X218567Y328114D01*
X212720Y328114D01*
X210771Y326165D01*
X210771Y322267D01*
X212720Y320318D01*
X218567Y320318D01*
X214669Y320318D02*
X210771Y316421D01*
X206873Y324216D02*
X202975Y328114D01*
X202975Y316421D01*
X206873Y316421D02*
X199077Y316421D01*
X189332Y316421D02*
X189332Y328114D01*
X195179Y322267D01*
X187383Y322267D01*
X216555Y269377D02*
X216555Y257683D01*
X216555Y269377D02*
X210708Y269377D01*
X208759Y267428D01*
X208759Y263530D01*
X210708Y261581D01*
X216555Y261581D01*
X212657Y261581D02*
X208759Y257683D01*
X204861Y269377D02*
X197065Y269377D01*
X197065Y267428D01*
X204861Y259632D01*
X204861Y257683D01*
X222905Y373571D02*
X222905Y385264D01*
X217058Y385264D01*
X215109Y383315D01*
X215109Y379417D01*
X217058Y377468D01*
X222905Y377468D01*
X219007Y377468D02*
X215109Y373571D01*
X211211Y383315D02*
X209262Y385264D01*
X205364Y385264D01*
X203415Y383315D01*
X203415Y381366D01*
X205364Y379417D01*
X203415Y377468D01*
X203415Y375519D01*
X205364Y373571D01*
X209262Y373571D01*
X211211Y375519D01*
X211211Y377468D01*
X209262Y379417D01*
X211211Y381366D01*
X211211Y383315D01*
X209262Y379417D02*
X205364Y379417D01*
M02*
