G04 EAGLE Gerber RS-274X export*
G75*
%MOMM*%
%FSLAX34Y34*%
%LPD*%
%INSolderpaste Top*%
%IPPOS*%
%AMOC8*
5,1,8,0,0,1.08239X$1,22.5*%
G01*
%ADD10R,1.100000X1.000000*%
%ADD11R,1.000000X1.100000*%
%ADD12R,0.700000X1.000000*%
%ADD13R,1.270000X0.558800*%
%ADD14R,0.558800X1.270000*%
%ADD15R,2.400000X1.900000*%
%ADD16R,1.400000X1.000000*%
%ADD17R,1.200000X1.200000*%
%ADD18R,0.600000X2.200000*%
%ADD19R,1.000000X1.400000*%
%ADD20R,2.500000X2.000000*%
%ADD21R,1.780000X2.160000*%
%ADD22R,1.200000X2.800000*%
%ADD23R,2.400000X2.800000*%
%ADD24R,2.800000X2.400000*%
%ADD25R,0.690000X0.990000*%
%ADD26R,1.000000X2.200000*%
%ADD27R,1.200000X0.850000*%
%ADD28R,0.350000X0.800000*%
%ADD29R,4.000000X4.000000*%
%ADD30R,2.000000X4.000000*%


D10*
X35488Y404813D03*
X18488Y404813D03*
D11*
X158750Y391088D03*
X158750Y374088D03*
X84138Y483163D03*
X84138Y466163D03*
D10*
X83113Y342900D03*
X66113Y342900D03*
D11*
X125413Y502213D03*
X125413Y485213D03*
D12*
X71438Y189025D03*
X61938Y211025D03*
X80938Y211025D03*
D11*
X41838Y363538D03*
X24838Y363538D03*
X64063Y488950D03*
X47063Y488950D03*
D10*
X31750Y438713D03*
X31750Y421713D03*
D11*
X35950Y342900D03*
X52950Y342900D03*
X118038Y468313D03*
X101038Y468313D03*
D10*
X158750Y451413D03*
X158750Y434413D03*
X158750Y421250D03*
X158750Y404250D03*
D11*
X40713Y468313D03*
X57713Y468313D03*
X37075Y234950D03*
X20075Y234950D03*
X20075Y214313D03*
X37075Y214313D03*
X28013Y193675D03*
X45013Y193675D03*
X148200Y468313D03*
X131200Y468313D03*
D10*
X157163Y510150D03*
X157163Y493150D03*
X228600Y472050D03*
X228600Y455050D03*
D13*
X52324Y434400D03*
X52324Y426400D03*
X52324Y418400D03*
X52324Y410400D03*
X52324Y402400D03*
X52324Y394400D03*
X52324Y386400D03*
X52324Y378400D03*
D14*
X67250Y363474D03*
X75250Y363474D03*
X83250Y363474D03*
X91250Y363474D03*
X99250Y363474D03*
X107250Y363474D03*
X115250Y363474D03*
X123250Y363474D03*
D13*
X138176Y378400D03*
X138176Y386400D03*
X138176Y394400D03*
X138176Y402400D03*
X138176Y410400D03*
X138176Y418400D03*
X138176Y426400D03*
X138176Y434400D03*
D14*
X123250Y449326D03*
X115250Y449326D03*
X107250Y449326D03*
X99250Y449326D03*
X91250Y449326D03*
X83250Y449326D03*
X75250Y449326D03*
X67250Y449326D03*
D10*
X20075Y288925D03*
X37075Y288925D03*
X20075Y314325D03*
X37075Y314325D03*
D11*
X117475Y216925D03*
X117475Y233925D03*
D10*
X233363Y372038D03*
X233363Y355038D03*
D11*
X18488Y384175D03*
X35488Y384175D03*
D15*
X60325Y281125D03*
X60325Y322125D03*
D10*
X64525Y228600D03*
X81525Y228600D03*
X64525Y249238D03*
X81525Y249238D03*
D16*
X44338Y261938D03*
X22338Y252438D03*
X22338Y271438D03*
D11*
X199463Y176213D03*
X216463Y176213D03*
X216463Y331788D03*
X199463Y331788D03*
D17*
X216875Y277813D03*
X195875Y277813D03*
D11*
X216463Y311150D03*
X199463Y311150D03*
D17*
X216875Y293688D03*
X195875Y293688D03*
D10*
X117475Y108513D03*
X117475Y91513D03*
D11*
X138113Y216925D03*
X138113Y233925D03*
D10*
X134375Y355600D03*
X151375Y355600D03*
D14*
X158175Y338201D03*
X150175Y338201D03*
X142175Y338201D03*
X134175Y338201D03*
X126175Y338201D03*
X118175Y338201D03*
X110175Y338201D03*
X102175Y338201D03*
D13*
X87249Y323275D03*
X87249Y315275D03*
X87249Y307275D03*
X87249Y299275D03*
X87249Y291275D03*
X87249Y283275D03*
X87249Y275275D03*
X87249Y267275D03*
D14*
X102175Y252349D03*
X110175Y252349D03*
X118175Y252349D03*
X126175Y252349D03*
X134175Y252349D03*
X142175Y252349D03*
X150175Y252349D03*
X158175Y252349D03*
D13*
X173101Y267275D03*
X173101Y275275D03*
X173101Y283275D03*
X173101Y291275D03*
X173101Y299275D03*
X173101Y307275D03*
X173101Y315275D03*
X173101Y323275D03*
D18*
X200025Y445100D03*
X200025Y393100D03*
X212725Y445100D03*
X187325Y445100D03*
X174625Y445100D03*
X212725Y393100D03*
X187325Y393100D03*
X174625Y393100D03*
D10*
X228600Y424888D03*
X228600Y441888D03*
D11*
X228600Y411725D03*
X228600Y394725D03*
D19*
X187325Y347775D03*
X177825Y369775D03*
X196825Y369775D03*
D10*
X59763Y60325D03*
X76763Y60325D03*
D20*
X87313Y95888D03*
X87313Y135888D03*
D21*
X55225Y155575D03*
X14525Y155575D03*
D10*
X233363Y341875D03*
X233363Y324875D03*
D17*
X212725Y348275D03*
X212725Y369275D03*
D22*
X126038Y63500D03*
X93038Y63500D03*
D23*
X209300Y69850D03*
X146300Y69850D03*
D24*
X31750Y120400D03*
X31750Y57400D03*
D25*
X136500Y157463D03*
X127000Y157463D03*
X117500Y157463D03*
X117500Y131463D03*
X127000Y131463D03*
X136500Y131463D03*
D11*
X152400Y140725D03*
X152400Y157725D03*
X115325Y173038D03*
X132325Y173038D03*
D10*
X98425Y156600D03*
X98425Y173600D03*
D11*
X77788Y156600D03*
X77788Y173600D03*
D26*
X210413Y117475D03*
X167413Y117475D03*
D27*
X149225Y96125D03*
X149225Y126125D03*
D28*
X223688Y113738D03*
X236688Y113738D03*
X236688Y130738D03*
X230188Y130738D03*
X223688Y130738D03*
D10*
X233363Y270438D03*
X233363Y253438D03*
D11*
X233363Y300600D03*
X233363Y283600D03*
D10*
X231775Y100575D03*
X231775Y83575D03*
D29*
X123825Y574675D03*
X174625Y574675D03*
X73025Y574675D03*
D30*
X123825Y22225D03*
X149225Y22225D03*
D29*
X85725Y22225D03*
D30*
X174625Y22225D03*
D18*
X187325Y485175D03*
X187325Y537175D03*
X174625Y485175D03*
X200025Y485175D03*
X212725Y485175D03*
X174625Y537175D03*
X200025Y537175D03*
X212725Y537175D03*
D11*
X104775Y493150D03*
X104775Y510150D03*
M02*
