G04 EAGLE Gerber RS-274X export*
G75*
%MOMM*%
%FSLAX34Y34*%
%LPD*%
%INSoldermask Bottom*%
%IPPOS*%
%AMOC8*
5,1,8,0,0,1.08239X$1,22.5*%
G01*
%ADD10P,1.869504X8X22.500000*%
%ADD11R,4.203200X4.203200*%
%ADD12R,2.203200X4.203200*%
%ADD13R,0.753200X1.653200*%
%ADD14R,1.803200X2.006200*%
%ADD15R,1.203200X1.303200*%
%ADD16C,0.914400*%


D10*
X161925Y200025D03*
X161925Y225425D03*
X187325Y200025D03*
X187325Y225425D03*
X212725Y200025D03*
X212725Y225425D03*
D11*
X73025Y574675D03*
X123825Y574675D03*
X174625Y574675D03*
X85725Y22225D03*
D12*
X123825Y22225D03*
X149225Y22225D03*
X174625Y22225D03*
D13*
X196850Y321750D03*
X222250Y321750D03*
X196850Y376750D03*
X222250Y376750D03*
D14*
X192155Y303213D03*
X220595Y303213D03*
X220595Y282575D03*
X192155Y282575D03*
D15*
X197875Y392113D03*
X214875Y392113D03*
D16*
X174625Y485775D03*
X174625Y479425D03*
X117475Y206375D03*
X31750Y449263D03*
X125413Y512763D03*
X93663Y436563D03*
X84138Y493713D03*
X7938Y404813D03*
X161925Y363538D03*
X9525Y288925D03*
X9525Y314325D03*
X53975Y249238D03*
X53975Y228600D03*
X117475Y265113D03*
X161925Y355600D03*
X127000Y323850D03*
X49213Y207963D03*
X123825Y265113D03*
X200025Y463550D03*
X212725Y409575D03*
X198438Y350838D03*
X198438Y344488D03*
X174625Y492125D03*
X238125Y311150D03*
X47625Y234950D03*
X9525Y271463D03*
X146050Y63500D03*
X139700Y63500D03*
X146050Y69850D03*
X139700Y69850D03*
X152400Y69850D03*
X152400Y63500D03*
X139700Y76200D03*
X146050Y76200D03*
X152400Y76200D03*
X222250Y141288D03*
X19050Y161925D03*
X19050Y155575D03*
X19050Y149225D03*
X142875Y169863D03*
X142875Y176213D03*
X233363Y314325D03*
X182563Y331788D03*
X12700Y161925D03*
X12700Y155575D03*
X12700Y149225D03*
X25400Y63500D03*
X31750Y63500D03*
X38100Y63500D03*
X25400Y57150D03*
X31750Y57150D03*
X38100Y57150D03*
X25400Y50800D03*
X31750Y50800D03*
X38100Y50800D03*
X123825Y206375D03*
X104775Y482600D03*
X228600Y482600D03*
X119063Y395288D03*
X68263Y398463D03*
X136525Y323850D03*
X117475Y282575D03*
X187325Y463550D03*
X49213Y219075D03*
X84138Y138113D03*
X90488Y138113D03*
X90488Y131763D03*
X84138Y131763D03*
X82550Y434975D03*
X87313Y412750D03*
X142875Y482600D03*
X82550Y512763D03*
X61913Y534988D03*
X160338Y473075D03*
X107950Y411163D03*
X74613Y404813D03*
X95250Y404813D03*
X133350Y455613D03*
X114300Y350838D03*
X101600Y314325D03*
X119063Y382588D03*
X101600Y288925D03*
X98425Y350838D03*
X158750Y288925D03*
X125413Y428625D03*
X93663Y249238D03*
X214313Y165100D03*
X111125Y273050D03*
X117475Y119063D03*
X117475Y323850D03*
X212725Y427038D03*
X119063Y312738D03*
X174625Y412750D03*
X138113Y282575D03*
X130175Y290513D03*
X101600Y298450D03*
X149225Y271463D03*
X158750Y298450D03*
X187325Y409575D03*
X190500Y252413D03*
X222250Y160338D03*
X200025Y409575D03*
X201613Y255588D03*
X228600Y153988D03*
X187325Y319088D03*
X187325Y266700D03*
X236538Y158750D03*
X233363Y52388D03*
X153988Y315913D03*
M02*
